<?xml version="1.0" encoding="UTF-8"?>
<!DOCTYPE svg PUBLIC "-//W3C//DTD SVG 1.1//EN" "http://www.w3.org/Graphics/SVG/1.1/DTD/svg11.dtd">
<svg xmlns="http://www.w3.org/2000/svg" version="1.1" width="172px" height="128px" style="shape-rendering:geometricPrecision; text-rendering:geometricPrecision; image-rendering:optimizeQuality; fill-rule:evenodd; clip-rule:evenodd" xmlns:xlink="http://www.w3.org/1999/xlink">
<g><path style="opacity:0.149" fill="#41596a" d="M 151.5,23.5 C 151.631,22.6236 151.298,21.9569 150.5,21.5C 149.583,22.1272 148.583,22.4606 147.5,22.5C 149.314,19.5458 151.314,19.2125 153.5,21.5C 153.145,22.5223 152.478,23.189 151.5,23.5 Z"/></g>
<g><path style="opacity:0.275" fill="#42555b" d="M 147.5,22.5 C 146.089,24.539 144.089,25.539 141.5,25.5C 143.181,23.9925 145.181,22.9925 147.5,22.5 Z"/></g>
<g><path style="opacity:0.004" fill="#2c3e47" d="M 150.5,24.5 C 150.5,25.8333 149.833,26.5 148.5,26.5C 148.833,25.5 149.5,24.8333 150.5,24.5 Z"/></g>
<g><path style="opacity:0.129" fill="#344a4e" d="M 141.5,25.5 C 140.694,26.7281 139.694,27.7281 138.5,28.5C 137.833,28.5 137.167,28.5 136.5,28.5C 136.167,28.5 135.833,28.5 135.5,28.5C 137.181,26.9925 139.181,25.9925 141.5,25.5 Z"/></g>
<g><path style="opacity:1" fill="#c2cac3" d="M 151.5,23.5 C 151.5,24.1667 151.167,24.5 150.5,24.5C 149.5,24.8333 148.833,25.5 148.5,26.5C 145.525,27.6551 142.858,29.3218 140.5,31.5C 140.715,29.8212 140.048,28.8212 138.5,28.5C 139.694,27.7281 140.694,26.7281 141.5,25.5C 144.089,25.539 146.089,24.539 147.5,22.5C 148.583,22.4606 149.583,22.1272 150.5,21.5C 151.298,21.9569 151.631,22.6236 151.5,23.5 Z"/></g>
<g><path style="opacity:0.565" fill="#586e6c" d="M 135.5,28.5 C 135.833,28.5 136.167,28.5 136.5,28.5C 136.389,29.1174 136.056,29.6174 135.5,30C 128.413,32.6373 121.413,35.1373 114.5,37.5C 113.167,37.5 111.833,37.5 110.5,37.5C 118.672,34.3292 127.005,31.3292 135.5,28.5 Z"/></g>
<g><path style="opacity:1" fill="#d6dabf" d="M 136.5,28.5 C 137.167,28.5 137.833,28.5 138.5,28.5C 140.048,28.8212 140.715,29.8212 140.5,31.5C 138.745,32.9044 136.745,33.9044 134.5,34.5C 128.703,34.3623 123.369,35.6956 118.5,38.5C 116.218,39.9458 113.885,40.2792 111.5,39.5C 112.602,38.8243 113.602,38.1577 114.5,37.5C 121.413,35.1373 128.413,32.6373 135.5,30C 136.056,29.6174 136.389,29.1174 136.5,28.5 Z"/></g>
<g><path style="opacity:0.122" fill="#445352" d="M 148.5,26.5 C 144.041,30.8969 139.041,34.5635 133.5,37.5C 134.11,36.609 134.443,35.609 134.5,34.5C 136.745,33.9044 138.745,32.9044 140.5,31.5C 142.858,29.3218 145.525,27.6551 148.5,26.5 Z"/></g>
<g><path style="opacity:0.475" fill="#455c5d" d="M 110.5,37.5 C 109.833,38.1667 109.167,38.8333 108.5,39.5C 103.654,40.2267 98.9872,41.5601 94.5,43.5C 99.2096,40.1481 104.543,38.1481 110.5,37.5 Z"/></g>
<g><path style="opacity:1" fill="#c8c295" d="M 134.5,34.5 C 134.443,35.609 134.11,36.609 133.5,37.5C 129.863,38.9855 126.53,40.9855 123.5,43.5C 122.817,41.8235 121.483,41.1568 119.5,41.5C 122.338,39.6941 122.005,38.6941 118.5,38.5C 123.369,35.6956 128.703,34.3623 134.5,34.5 Z"/></g>
<g><path style="opacity:1" fill="#b4b58d" d="M 110.5,37.5 C 111.833,37.5 113.167,37.5 114.5,37.5C 113.602,38.1577 112.602,38.8243 111.5,39.5C 113.885,40.2792 116.218,39.9458 118.5,38.5C 122.005,38.6941 122.338,39.6941 119.5,41.5C 117.194,41.9926 114.861,42.3259 112.5,42.5C 112.52,44.143 111.853,45.4763 110.5,46.5C 110.863,47.1835 111.196,47.8501 111.5,48.5C 110.5,48.5 109.5,48.5 108.5,48.5C 106.708,48.366 105.042,48.6993 103.5,49.5C 103.511,47.9826 104.177,46.8159 105.5,46C 102.854,45.5026 100.187,45.3359 97.5,45.5C 100.21,43.8916 103.21,42.7249 106.5,42C 107.381,41.2917 108.047,40.4584 108.5,39.5C 109.167,38.8333 109.833,38.1667 110.5,37.5 Z"/></g>
<g><path style="opacity:1" fill="#cacca4" d="M 119.5,41.5 C 121.483,41.1568 122.817,41.8235 123.5,43.5C 119.075,45.59 116.075,48.9234 114.5,53.5C 113.167,54.1667 112.167,55.1667 111.5,56.5C 109.952,56.1788 109.285,55.1788 109.5,53.5C 110.5,53.5 111.5,53.5 112.5,53.5C 112.784,51.5853 112.451,49.9187 111.5,48.5C 111.196,47.8501 110.863,47.1835 110.5,46.5C 111.853,45.4763 112.52,44.143 112.5,42.5C 114.861,42.3259 117.194,41.9926 119.5,41.5 Z"/></g>
<g><path style="opacity:0.094" fill="#40544f" d="M 133.5,37.5 C 126.531,42.1408 120.197,47.4741 114.5,53.5C 116.075,48.9234 119.075,45.59 123.5,43.5C 126.53,40.9855 129.863,38.9855 133.5,37.5 Z"/></g>
<g><path style="opacity:0.286" fill="#3d5a60" d="M 94.5,43.5 C 93.8333,44.8333 92.8333,45.8333 91.5,46.5C 91.5,44.5 92.5,43.5 94.5,43.5 Z"/></g>
<g><path style="opacity:1" fill="#999974" d="M 97.5,45.5 C 100.187,45.3359 102.854,45.5026 105.5,46C 104.177,46.8159 103.511,47.9826 103.5,49.5C 101.612,50.9397 99.9454,52.6064 98.5,54.5C 97.6143,55.325 97.281,56.325 97.5,57.5C 96.5,57.5 95.5,57.5 94.5,57.5C 94.0074,55.1944 93.6741,52.861 93.5,50.5C 94.8333,48.8333 96.1667,47.1667 97.5,45.5 Z"/></g>
<g><path style="opacity:0.271" fill="#476263" d="M 91.5,46.5 C 90.9744,48.2303 89.9744,49.5637 88.5,50.5C 88.5544,48.368 89.5544,47.0347 91.5,46.5 Z"/></g>
<g><path style="opacity:0.361" fill="#425c61" d="M 88.5,50.5 C 88.2503,52.674 87.2503,54.3406 85.5,55.5C 85.7497,53.326 86.7497,51.6594 88.5,50.5 Z"/></g>
<g><path style="opacity:1" fill="#c0c7ae" d="M 108.5,39.5 C 108.047,40.4584 107.381,41.2917 106.5,42C 103.21,42.7249 100.21,43.8916 97.5,45.5C 96.1667,47.1667 94.8333,48.8333 93.5,50.5C 92.5416,50.9528 91.7083,51.6195 91,52.5C 89.36,55.3606 88.1933,58.3606 87.5,61.5C 86.0256,62.4363 85.0256,63.7697 84.5,65.5C 83.5,65.5 82.5,65.5 81.5,65.5C 84.4603,62.9003 85.7937,59.567 85.5,55.5C 87.2503,54.3406 88.2503,52.674 88.5,50.5C 89.9744,49.5637 90.9744,48.2303 91.5,46.5C 92.8333,45.8333 93.8333,44.8333 94.5,43.5C 98.9872,41.5601 103.654,40.2267 108.5,39.5 Z"/></g>
<g><path style="opacity:1" fill="#e1dcac" d="M 108.5,48.5 C 109.5,48.5 110.5,48.5 111.5,48.5C 112.451,49.9187 112.784,51.5853 112.5,53.5C 111.5,53.5 110.5,53.5 109.5,53.5C 109.285,55.1788 109.952,56.1788 111.5,56.5C 111.5,56.8333 111.5,57.1667 111.5,57.5C 109.071,58.2648 107.738,59.9315 107.5,62.5C 106.596,63.209 106.263,64.209 106.5,65.5C 104.228,66.4411 102.228,67.7745 100.5,69.5C 95.6102,71.9362 91.2769,70.9362 87.5,66.5C 90.5437,67.8293 93.5437,67.6626 96.5,66C 98.4385,61.3893 100.438,56.8893 102.5,52.5C 103.833,52.5 105.167,52.5 106.5,52.5C 106.527,50.8007 107.194,49.4674 108.5,48.5 Z"/></g>
<g><path style="opacity:1" fill="#a7a37b" d="M 93.5,50.5 C 93.6741,52.861 94.0074,55.1944 94.5,57.5C 95.5,57.5 96.5,57.5 97.5,57.5C 96.0582,58.8195 95.3915,60.4862 95.5,62.5C 92.6146,62.8064 89.9479,62.4731 87.5,61.5C 88.1933,58.3606 89.36,55.3606 91,52.5C 91.7083,51.6195 92.5416,50.9528 93.5,50.5 Z"/></g>
<g><path style="opacity:0.157" fill="#384d49" d="M 114.5,53.5 C 114.408,55.8477 113.408,57.5144 111.5,58.5C 111.5,58.1667 111.5,57.8333 111.5,57.5C 111.5,57.1667 111.5,56.8333 111.5,56.5C 112.167,55.1667 113.167,54.1667 114.5,53.5 Z"/></g>
<g><path style="opacity:0.847" fill="#879386" d="M 111.5,57.5 C 111.5,57.8333 111.5,58.1667 111.5,58.5C 111.672,59.4916 111.338,60.1583 110.5,60.5C 109.222,60.7822 108.222,61.4489 107.5,62.5C 107.738,59.9315 109.071,58.2648 111.5,57.5 Z"/></g>
<g><path style="opacity:1" fill="#c3c090" d="M 108.5,48.5 C 107.194,49.4674 106.527,50.8007 106.5,52.5C 105.167,52.5 103.833,52.5 102.5,52.5C 100.438,56.8893 98.4385,61.3893 96.5,66C 93.5437,67.6626 90.5437,67.8293 87.5,66.5C 86.8333,66.5 86.1667,66.5 85.5,66.5C 85.5,65.8333 85.1667,65.5 84.5,65.5C 85.0256,63.7697 86.0256,62.4363 87.5,61.5C 89.9479,62.4731 92.6146,62.8064 95.5,62.5C 95.3915,60.4862 96.0582,58.8195 97.5,57.5C 97.281,56.325 97.6143,55.325 98.5,54.5C 99.9454,52.6064 101.612,50.9397 103.5,49.5C 105.042,48.6993 106.708,48.366 108.5,48.5 Z"/></g>
<g><path style="opacity:0.078" fill="#364b4b" d="M 110.5,60.5 C 109.876,62.754 108.543,64.4206 106.5,65.5C 106.263,64.209 106.596,63.209 107.5,62.5C 108.222,61.4489 109.222,60.7822 110.5,60.5 Z"/></g>
<g><path style="opacity:0.09" fill="#3d5660" d="M 85.5,55.5 C 85.7937,59.567 84.4603,62.9003 81.5,65.5C 75.4136,64.8908 69.7469,65.8908 64.5,68.5C 63.8333,68.5 63.1667,68.5 62.5,68.5C 60.8828,69.038 59.2161,69.3713 57.5,69.5C 64.5906,65.7578 72.2572,63.9245 80.5,64C 82.6754,61.3992 84.342,58.5659 85.5,55.5 Z"/></g>
<g><path style="opacity:0.996" fill="#b1c1bf" d="M 81.5,65.5 C 75.9208,66.3003 70.2541,67.3003 64.5,68.5C 69.7469,65.8908 75.4136,64.8908 81.5,65.5 Z"/></g>
<g><path style="opacity:1" fill="#e7e5b8" d="M 85.5,66.5 C 86.1667,66.5 86.8333,66.5 87.5,66.5C 91.2769,70.9362 95.6102,71.9362 100.5,69.5C 100.651,73.314 102.651,74.9807 106.5,74.5C 107.167,74.5 107.833,74.5 108.5,74.5C 108.5,74.8333 108.5,75.1667 108.5,75.5C 104.766,75.6773 101.099,75.3439 97.5,74.5C 95.9582,73.6993 94.2915,73.366 92.5,73.5C 91.0697,72.4625 89.403,71.7959 87.5,71.5C 86.1667,71.1667 84.8333,70.8333 83.5,70.5C 83.5,70.1667 83.5,69.8333 83.5,69.5C 85.0481,69.1788 85.7148,68.1788 85.5,66.5 Z"/></g>
<g><path style="opacity:1" fill="#acae93" d="M 83.5,69.5 C 83.5,69.8333 83.5,70.1667 83.5,70.5C 79.6286,70.185 75.9619,70.5184 72.5,71.5C 71.1667,71.5 69.8333,71.5 68.5,71.5C 69.2625,70.7321 70.2625,70.2321 71.5,70C 75.4862,69.5012 79.4862,69.3345 83.5,69.5 Z"/></g>
<g><path style="opacity:0.278" fill="#516559" d="M 106.5,65.5 C 105.218,67.4645 103.885,69.4645 102.5,71.5C 102.624,72.1067 102.957,72.44 103.5,72.5C 104.5,73.1667 105.5,73.8333 106.5,74.5C 102.651,74.9807 100.651,73.314 100.5,69.5C 102.228,67.7745 104.228,66.4411 106.5,65.5 Z"/></g>
<g><path style="opacity:0.886" fill="#a0b3ac" d="M 62.5,68.5 C 60.9674,70.2451 58.9674,71.2451 56.5,71.5C 56.8333,70.8333 57.1667,70.1667 57.5,69.5C 59.2161,69.3713 60.8828,69.038 62.5,68.5 Z"/></g>
<g><path style="opacity:1" fill="#e9eed9" d="M 81.5,65.5 C 82.5,65.5 83.5,65.5 84.5,65.5C 85.1667,65.5 85.5,65.8333 85.5,66.5C 85.7148,68.1788 85.0481,69.1788 83.5,69.5C 79.4862,69.3345 75.4862,69.5012 71.5,70C 70.2625,70.2321 69.2625,70.7321 68.5,71.5C 68.1667,71.5 67.8333,71.5 67.5,71.5C 65.4214,71.9707 63.4214,72.6373 61.5,73.5C 58.7482,73.578 56.0816,73.7446 53.5,74C 54.3805,73.2917 55.0472,72.4584 55.5,71.5C 55.8333,71.5 56.1667,71.5 56.5,71.5C 58.9674,71.2451 60.9674,70.2451 62.5,68.5C 63.1667,68.5 63.8333,68.5 64.5,68.5C 70.2541,67.3003 75.9208,66.3003 81.5,65.5 Z"/></g>
<g><path style="opacity:0.141" fill="#335155" d="M 57.5,69.5 C 57.1667,70.1667 56.8333,70.8333 56.5,71.5C 56.1667,71.5 55.8333,71.5 55.5,71.5C 51.846,73.3311 48.5127,75.6644 45.5,78.5C 46.9274,75.2364 49.2608,72.7364 52.5,71C 54.1545,70.3923 55.8211,69.8923 57.5,69.5 Z"/></g>
<g><path style="opacity:1" fill="#9eaa90" d="M 67.5,71.5 C 65.9674,73.2451 63.9674,74.2451 61.5,74.5C 61.5,74.1667 61.5,73.8333 61.5,73.5C 63.4214,72.6373 65.4214,71.9707 67.5,71.5 Z"/></g>
<g><path style="opacity:1" fill="#5c7567" d="M 87.5,79.5 C 84.5463,77.5605 81.3796,75.8939 78,74.5C 71.5418,78.6641 72.0418,80.9975 79.5,81.5C 75.277,81.6606 71.277,80.994 67.5,79.5C 66.8333,79.5 66.5,79.1667 66.5,78.5C 68.5115,77.659 69.8448,76.159 70.5,74C 77.582,72.3512 83.9154,73.6845 89.5,78C 88.9558,78.7172 88.2891,79.2172 87.5,79.5 Z"/></g>
<g><path style="opacity:0.106" fill="#2c494b" d="M 103.5,72.5 C 109.669,73.2714 115.669,74.2714 121.5,75.5C 117.131,75.5328 112.798,75.1995 108.5,74.5C 107.833,74.5 107.167,74.5 106.5,74.5C 105.5,73.8333 104.5,73.1667 103.5,72.5 Z"/></g>
<g><path style="opacity:0.008" fill="#305665" d="M 121.5,75.5 C 123.252,75.4176 124.252,76.2509 124.5,78C 124.164,79.0299 123.497,79.5299 122.5,79.5C 122.567,78.0413 122.234,76.7079 121.5,75.5 Z"/></g>
<g><path style="opacity:1" fill="#9d9f7f" d="M 61.5,74.5 C 61.6716,75.4916 61.3382,76.1583 60.5,76.5C 59.1667,76.8333 57.8333,77.1667 56.5,77.5C 57.6594,75.7497 59.326,74.7497 61.5,74.5 Z"/></g>
<g><path style="opacity:1" fill="#6a7c67" d="M 72.5,71.5 C 75.9619,70.5184 79.6286,70.185 83.5,70.5C 84.8333,70.8333 86.1667,71.1667 87.5,71.5C 90.4643,74.9534 94.131,77.4534 98.5,79C 99.3366,80.0113 99.67,81.1779 99.5,82.5C 98.1667,82.5 96.8333,82.5 95.5,82.5C 95.7148,84.1788 95.0481,85.1788 93.5,85.5C 94.2341,84.2921 94.5674,82.9587 94.5,81.5C 95.675,81.719 96.675,81.3857 97.5,80.5C 92.2504,78.2057 87.2504,75.3724 82.5,72C 79.1832,71.5017 75.8499,71.335 72.5,71.5 Z"/></g>
<g><path style="opacity:1" fill="#e3dfad" d="M 97.5,74.5 C 101.099,75.3439 104.766,75.6773 108.5,75.5C 112.452,76.1958 116.452,76.6958 120.5,77C 118.98,78.728 117.314,80.228 115.5,81.5C 111.454,81.0479 107.454,80.3813 103.5,79.5C 101.596,77.6783 99.596,76.0117 97.5,74.5 Z"/></g>
<g><path style="opacity:1" fill="#5e7565" d="M 67.5,71.5 C 67.8333,71.5 68.1667,71.5 68.5,71.5C 69.8333,71.5 71.1667,71.5 72.5,71.5C 75.8499,71.335 79.1832,71.5017 82.5,72C 87.2504,75.3724 92.2504,78.2057 97.5,80.5C 96.675,81.3857 95.675,81.719 94.5,81.5C 94.5674,82.9587 94.2341,84.2921 93.5,85.5C 89.944,87.123 86.944,86.4563 84.5,83.5C 85.8333,83.5 87.1667,83.5 88.5,83.5C 88.5674,82.0413 88.2341,80.7079 87.5,79.5C 88.2891,79.2172 88.9558,78.7172 89.5,78C 83.9154,73.6845 77.582,72.3512 70.5,74C 69.8448,76.159 68.5115,77.659 66.5,78.5C 64.1016,78.7406 62.1016,78.0739 60.5,76.5C 61.3382,76.1583 61.6716,75.4916 61.5,74.5C 63.9674,74.2451 65.9674,73.2451 67.5,71.5 Z"/></g>
<g><path style="opacity:1" fill="#858f71" d="M 87.5,71.5 C 89.403,71.7959 91.0697,72.4625 92.5,73.5C 96.0497,75.8683 99.383,78.5349 102.5,81.5C 101.405,83.6204 99.7385,85.1204 97.5,86C 97.8333,86.3333 98.1667,86.6667 98.5,87C 95.866,87.6503 93.5327,88.817 91.5,90.5C 92.1667,88.8333 92.8333,87.1667 93.5,85.5C 95.0481,85.1788 95.7148,84.1788 95.5,82.5C 96.8333,82.5 98.1667,82.5 99.5,82.5C 99.67,81.1779 99.3366,80.0113 98.5,79C 94.131,77.4534 90.4643,74.9534 87.5,71.5 Z"/></g>
<g><path style="opacity:0.012" fill="#2c4643" d="M 122.5,79.5 C 122.027,80.9063 121.027,81.573 119.5,81.5C 119.973,80.0937 120.973,79.427 122.5,79.5 Z"/></g>
<g><path style="opacity:1" fill="#d7ddbf" d="M 55.5,71.5 C 55.0472,72.4584 54.3805,73.2917 53.5,74C 56.0816,73.7446 58.7482,73.578 61.5,73.5C 61.5,73.8333 61.5,74.1667 61.5,74.5C 59.326,74.7497 57.6594,75.7497 56.5,77.5C 51.2832,79.271 46.9499,82.271 43.5,86.5C 41.8595,87.147 40.5261,88.147 39.5,89.5C 38.6618,89.1583 38.3284,88.4916 38.5,87.5C 41.2154,84.7861 43.5488,81.7861 45.5,78.5C 48.5127,75.6644 51.846,73.3311 55.5,71.5 Z"/></g>
<g><path style="opacity:1" fill="#6f7d61" d="M 60.5,76.5 C 62.1016,78.0739 64.1016,78.7406 66.5,78.5C 66.5,79.1667 66.8333,79.5 67.5,79.5C 67.5,79.8333 67.5,80.1667 67.5,80.5C 63.7802,80.5642 60.1135,81.0642 56.5,82C 53.9096,83.4451 51.243,84.6118 48.5,85.5C 48.8087,82.6545 50.4754,81.1545 53.5,81C 54.7101,79.9609 55.7101,78.7942 56.5,77.5C 57.8333,77.1667 59.1667,76.8333 60.5,76.5 Z"/></g>
<g><path style="opacity:0.867" fill="#919d86" d="M 108.5,75.5 C 108.5,75.1667 108.5,74.8333 108.5,74.5C 112.798,75.1995 117.131,75.5328 121.5,75.5C 122.234,76.7079 122.567,78.0413 122.5,79.5C 120.973,79.427 119.973,80.0937 119.5,81.5C 118.167,82.1667 117.167,83.1667 116.5,84.5C 116.5,85.1667 116.167,85.5 115.5,85.5C 113.952,85.8212 113.285,86.8212 113.5,88.5C 112.391,88.5569 111.391,88.8902 110.5,89.5C 110.904,88.2436 111.571,87.0769 112.5,86C 112.265,85.1268 111.931,84.2935 111.5,83.5C 112.949,82.8281 114.282,82.1614 115.5,81.5C 117.314,80.228 118.98,78.728 120.5,77C 116.452,76.6958 112.452,76.1958 108.5,75.5 Z"/></g>
<g><path style="opacity:1" fill="#6d7f6f" d="M 67.5,80.5 C 67.5,80.1667 67.5,79.8333 67.5,79.5C 71.277,80.994 75.277,81.6606 79.5,81.5C 81.0109,82.5025 82.6776,83.1692 84.5,83.5C 86.944,86.4563 89.944,87.123 93.5,85.5C 92.8333,87.1667 92.1667,88.8333 91.5,90.5C 91.5,91.1667 91.1667,91.5 90.5,91.5C 89.01,88.1078 86.3434,86.7745 82.5,87.5C 77.8333,86.8333 73.1667,86.1667 68.5,85.5C 71.5719,85.8174 74.5719,85.4841 77.5,84.5C 77.0431,83.7025 76.3764,83.3691 75.5,83.5C 72.8763,82.5058 70.2097,81.5058 67.5,80.5 Z"/></g>
<g><path style="opacity:1" fill="#5a7469" d="M 87.5,79.5 C 88.2341,80.7079 88.5674,82.0413 88.5,83.5C 87.1667,83.5 85.8333,83.5 84.5,83.5C 82.6776,83.1692 81.0109,82.5025 79.5,81.5C 72.0418,80.9975 71.5418,78.6641 78,74.5C 81.3796,75.8939 84.5463,77.5605 87.5,79.5 Z"/></g>
<g><path style="opacity:1" fill="#d2d1a2" d="M 103.5,79.5 C 107.454,80.3813 111.454,81.0479 115.5,81.5C 114.282,82.1614 112.949,82.8281 111.5,83.5C 111.931,84.2935 112.265,85.1268 112.5,86C 111.571,87.0769 110.904,88.2436 110.5,89.5C 108.952,89.8212 108.285,90.8212 108.5,92.5C 106.379,92.6747 104.379,92.3414 102.5,91.5C 101.571,90.6851 100.571,89.8518 99.5,89C 101.957,87.4379 104.624,86.4379 107.5,86C 105.334,84.322 104.001,82.1553 103.5,79.5 Z"/></g>
<g><path style="opacity:1" fill="#8c9475" d="M 56.5,77.5 C 55.7101,78.7942 54.7101,79.9609 53.5,81C 50.4754,81.1545 48.8087,82.6545 48.5,85.5C 51.243,84.6118 53.9096,83.4451 56.5,82C 60.1135,81.0642 63.7802,80.5642 67.5,80.5C 70.2097,81.5058 72.8763,82.5058 75.5,83.5C 71.5104,82.8099 67.5104,82.6432 63.5,83C 59.065,84.568 54.7317,86.068 50.5,87.5C 48.395,88.9909 46.2283,89.6576 44,89.5C 43.5172,88.552 43.3505,87.552 43.5,86.5C 46.9499,82.271 51.2832,79.271 56.5,77.5 Z"/></g>
<g><path style="opacity:0.008" fill="#2a4a4b" d="M 119.5,81.5 C 119.5,83.5 118.5,84.5 116.5,84.5C 117.167,83.1667 118.167,82.1667 119.5,81.5 Z"/></g>
<g><path style="opacity:0.271" fill="#3a5559" d="M 45.5,78.5 C 43.5488,81.7861 41.2154,84.7861 38.5,87.5C 37.5,88.1667 36.5,88.8333 35.5,89.5C 37.7589,86.0622 40.2589,82.7289 43,79.5C 43.6708,78.7476 44.5041,78.4142 45.5,78.5 Z"/></g>
<g><path style="opacity:0.996" fill="#a3ad90" d="M 75.5,83.5 C 76.3764,83.3691 77.0431,83.7025 77.5,84.5C 74.5719,85.4841 71.5719,85.8174 68.5,85.5C 64.433,85.2063 61.0997,86.5397 58.5,89.5C 57.8333,89.5 57.1667,89.5 56.5,89.5C 55.0821,87.6921 53.0821,87.0254 50.5,87.5C 54.7317,86.068 59.065,84.568 63.5,83C 67.5104,82.6432 71.5104,82.8099 75.5,83.5 Z"/></g>
<g><path style="opacity:0.008" fill="#2c4b4a" d="M 115.5,85.5 C 115.573,87.0269 114.906,88.0269 113.5,88.5C 113.285,86.8212 113.952,85.8212 115.5,85.5 Z"/></g>
<g><path style="opacity:1" fill="#abaa82" d="M 92.5,73.5 C 94.2915,73.366 95.9582,73.6993 97.5,74.5C 99.596,76.0117 101.596,77.6783 103.5,79.5C 104.001,82.1553 105.334,84.322 107.5,86C 104.624,86.4379 101.957,87.4379 99.5,89C 100.571,89.8518 101.571,90.6851 102.5,91.5C 101.508,91.3284 100.842,91.6618 100.5,92.5C 99.1634,91.6851 98.1634,90.5185 97.5,89C 96.8333,88.3333 96.1667,88.3333 95.5,89C 96.6903,91.2838 98.0236,93.4505 99.5,95.5C 96.5185,95.1824 94.1852,96.1824 92.5,98.5C 91.4324,99.4345 90.099,99.7678 88.5,99.5C 88.3189,96.2156 87.3189,93.2156 85.5,90.5C 87.1172,91.038 88.7839,91.3713 90.5,91.5C 91.1667,91.5 91.5,91.1667 91.5,90.5C 93.5327,88.817 95.866,87.6503 98.5,87C 98.1667,86.6667 97.8333,86.3333 97.5,86C 99.7385,85.1204 101.405,83.6204 102.5,81.5C 99.383,78.5349 96.0497,75.8683 92.5,73.5 Z"/></g>
<g><path style="opacity:1" fill="#b1ab85" d="M 43.5,86.5 C 43.3505,87.552 43.5172,88.552 44,89.5C 46.2283,89.6576 48.395,88.9909 50.5,87.5C 49.365,88.4745 48.365,89.6412 47.5,91C 43.7855,91.6913 40.4522,93.1913 37.5,95.5C 36.8165,95.1373 36.1499,94.8039 35.5,94.5C 35.0618,94.5654 34.7284,94.3988 34.5,94C 36.7669,93.1065 38.4336,91.6065 39.5,89.5C 40.5261,88.147 41.8595,87.147 43.5,86.5 Z"/></g>
<g><path style="opacity:0.104" fill="#304e51" d="M 68.5,85.5 C 73.1667,86.1667 77.8333,86.8333 82.5,87.5C 82.5628,92.2029 82.2295,96.8696 81.5,101.5C 83.5,101.167 85.5,100.833 87.5,100.5C 88.1667,100.5 88.5,100.167 88.5,99.5C 90.099,99.7678 91.4324,99.4345 92.5,98.5C 95.8333,97.8333 99.1667,97.1667 102.5,96.5C 95.8246,101.173 88.4913,103.173 80.5,102.5C 80.9981,97.8478 81.3314,93.1811 81.5,88.5C 73.7063,86.8912 66.0396,87.2245 58.5,89.5C 61.0997,86.5397 64.433,85.2063 68.5,85.5 Z"/></g>
<g><path style="opacity:1" fill="#d6d5ae" d="M 100.5,92.5 C 101.906,92.9731 102.573,93.9731 102.5,95.5C 101.5,95.5 100.5,95.5 99.5,95.5C 98.0236,93.4505 96.6903,91.2838 95.5,89C 96.1667,88.3333 96.8333,88.3333 97.5,89C 98.1634,90.5185 99.1634,91.6851 100.5,92.5 Z"/></g>
<g><path style="opacity:0.004" fill="#2e4347" d="M 113.5,88.5 C 111.833,90.1667 110.167,91.8333 108.5,93.5C 108.5,93.1667 108.5,92.8333 108.5,92.5C 108.285,90.8212 108.952,89.8212 110.5,89.5C 111.391,88.8902 112.391,88.5569 113.5,88.5 Z"/></g>
<g><path style="opacity:0.047" fill="#374b4b" d="M 56.5,89.5 C 57.1667,89.5 57.8333,89.5 58.5,89.5C 54.8685,92.321 50.8685,94.6543 46.5,96.5C 46.5,96.1667 46.5,95.8333 46.5,95.5C 49.6931,93.3184 53.0265,91.3184 56.5,89.5 Z"/></g>
<g><path style="opacity:0.22" fill="#3b565d" d="M 35.5,89.5 C 33.0757,92.6564 30.409,95.6564 27.5,98.5C 29.0225,94.436 31.6891,91.436 35.5,89.5 Z"/></g>
<g><path style="opacity:0.808" fill="#687461" d="M 100.5,92.5 C 100.842,91.6618 101.508,91.3284 102.5,91.5C 104.379,92.3414 106.379,92.6747 108.5,92.5C 108.5,92.8333 108.5,93.1667 108.5,93.5C 108.167,93.5 107.833,93.5 107.5,93.5C 105.446,93.3653 103.779,94.032 102.5,95.5C 102.573,93.9731 101.906,92.9731 100.5,92.5 Z"/></g>
<g><path style="opacity:1" fill="#cac89a" d="M 85.5,90.5 C 87.3189,93.2156 88.3189,96.2156 88.5,99.5C 88.5,100.167 88.1667,100.5 87.5,100.5C 86.713,98.8958 85.3797,98.2291 83.5,98.5C 83.3354,95.4816 83.502,92.4816 84,89.5C 84.3826,90.056 84.8826,90.3893 85.5,90.5 Z"/></g>
<g><path style="opacity:0.004" fill="#263e43" d="M 107.5,93.5 C 105.955,94.6396 104.288,95.6396 102.5,96.5C 102.5,96.1667 102.5,95.8333 102.5,95.5C 103.779,94.032 105.446,93.3653 107.5,93.5 Z"/></g>
<g><path style="opacity:0.525" fill="#697468" d="M 46.5,95.5 C 46.5,95.8333 46.5,96.1667 46.5,96.5C 45.791,97.404 44.791,97.7373 43.5,97.5C 42.8333,97.5 42.1667,97.5 41.5,97.5C 42.6354,95.7868 44.302,95.1201 46.5,95.5 Z"/></g>
<g><path style="opacity:0.904" fill="#8e9c86" d="M 82.5,87.5 C 86.3434,86.7745 89.01,88.1078 90.5,91.5C 88.7839,91.3713 87.1172,91.038 85.5,90.5C 84.8826,90.3893 84.3826,90.056 84,89.5C 83.502,92.4816 83.3354,95.4816 83.5,98.5C 85.3797,98.2291 86.713,98.8958 87.5,100.5C 85.5,100.833 83.5,101.167 81.5,101.5C 82.2295,96.8696 82.5628,92.2029 82.5,87.5 Z"/></g>
<g><path style="opacity:0.765" fill="#869383" d="M 99.5,95.5 C 100.5,95.5 101.5,95.5 102.5,95.5C 102.5,95.8333 102.5,96.1667 102.5,96.5C 99.1667,97.1667 95.8333,97.8333 92.5,98.5C 94.1852,96.1824 96.5185,95.1824 99.5,95.5 Z"/></g>
<g><path style="opacity:1" fill="#c5c19b" d="M 50.5,87.5 C 53.0821,87.0254 55.0821,87.6921 56.5,89.5C 53.0265,91.3184 49.6931,93.3184 46.5,95.5C 44.302,95.1201 42.6354,95.7868 41.5,97.5C 38.9208,99.3311 36.2541,100.998 33.5,102.5C 31.8007,102.527 30.4674,103.194 29.5,104.5C 28.6971,103.577 28.5304,102.577 29,101.5C 30.6941,98.6424 32.8607,96.309 35.5,94.5C 36.1499,94.8039 36.8165,95.1373 37.5,95.5C 40.4522,93.1913 43.7855,91.6913 47.5,91C 48.365,89.6412 49.365,88.4745 50.5,87.5 Z"/></g>
<g><path style="opacity:0.263" fill="#405a5f" d="M 27.5,98.5 C 26.8333,99.8333 25.8333,100.833 24.5,101.5C 24.5,99.5 25.5,98.5 27.5,98.5 Z"/></g>
<g><path style="opacity:0.004" fill="#2e4543" d="M 41.5,97.5 C 42.1667,97.5 42.8333,97.5 43.5,97.5C 40.1208,100.858 36.1208,103.191 31.5,104.5C 32.1667,103.833 32.8333,103.167 33.5,102.5C 36.2541,100.998 38.9208,99.3311 41.5,97.5 Z"/></g>
<g><path style="opacity:0.251" fill="#36515a" d="M 24.5,101.5 C 24.1667,102.167 23.8333,102.833 23.5,103.5C 22.8333,103.833 22.1667,104.167 21.5,104.5C 21.5,102.5 22.5,101.5 24.5,101.5 Z"/></g>
<g><path style="opacity:1" fill="#c4c9b0" d="M 38.5,87.5 C 38.3284,88.4916 38.6618,89.1583 39.5,89.5C 38.4336,91.6065 36.7669,93.1065 34.5,94C 34.7284,94.3988 35.0618,94.5654 35.5,94.5C 32.8607,96.309 30.6941,98.6424 29,101.5C 28.5304,102.577 28.6971,103.577 29.5,104.5C 27.8333,105.167 26.1667,105.833 24.5,106.5C 27.4841,103.479 27.1507,102.479 23.5,103.5C 23.8333,102.833 24.1667,102.167 24.5,101.5C 25.8333,100.833 26.8333,99.8333 27.5,98.5C 30.409,95.6564 33.0757,92.6564 35.5,89.5C 36.5,88.8333 37.5,88.1667 38.5,87.5 Z"/></g>
<g><path style="opacity:0.988" fill="#c5d9d1" d="M 24.5,106.5 C 22.3877,108.771 19.721,110.104 16.5,110.5C 15.209,110.737 14.209,110.404 13.5,109.5C 16.7043,108.617 19.3709,106.95 21.5,104.5C 22.1667,104.167 22.8333,103.833 23.5,103.5C 27.1507,102.479 27.4841,103.479 24.5,106.5 Z"/></g>
<g><path style="opacity:0.392" fill="#3a5a65" d="M 33.5,102.5 C 32.8333,103.167 32.1667,103.833 31.5,104.5C 25.9995,109.296 19.4995,112.296 12,113.5C 8.71545,113.3 7.88212,111.8 9.5,109C 13.6209,107.771 17.6209,106.271 21.5,104.5C 19.3709,106.95 16.7043,108.617 13.5,109.5C 12.325,109.281 11.325,109.614 10.5,110.5C 12.6365,111.793 14.6365,111.793 16.5,110.5C 19.721,110.104 22.3877,108.771 24.5,106.5C 26.1667,105.833 27.8333,105.167 29.5,104.5C 30.4674,103.194 31.8007,102.527 33.5,102.5 Z"/></g>
<g><path style="opacity:0.714" fill="#7a9ca5" d="M 13.5,109.5 C 14.209,110.404 15.209,110.737 16.5,110.5C 14.6365,111.793 12.6365,111.793 10.5,110.5C 11.325,109.614 12.325,109.281 13.5,109.5 Z"/></g>
</svg>
