<svg width="200" height="200" viewBox="0 0 200 200" fill="none" xmlns="http://www.w3.org/2000/svg">
<rect width="200" height="200" fill="url(#paint0_linear_302_208)"/>
<path d="M161.333 156.667C166.222 166 168.667 200 168.667 200H31.3335C31.3335 200 33.7782 166 38.6668 156.667C46.0002 142.667 100 124.667 100 124.667C100 124.667 154 142.667 161.333 156.667Z" fill="url(#paint1_linear_302_208)"/>
<path d="M156.981 116.941L48.6761 103.852C43.3365 75.5062 49.6699 57.6469 67.6761 50.274C76.0001 23 108.398 25.2187 117.581 27.442C148.832 35.0091 161.965 64.842 156.981 116.941Z" fill="url(#paint2_linear_302_208)"/>
<path d="M84.0001 132.667V92.6667C67.3194 92.4174 70.5727 63.5121 87.3334 72.3334C90.3334 73.6667 98.0001 70.0001 95.3334 61.0001C113.333 74.3334 138.416 50.9334 140 65.3334C143.117 93.6741 137.086 116.968 121.095 116.969C119.391 117.034 117.684 116.933 116 116.667V132.667C110.78 135.778 105.56 137.333 100.34 137.333C95.1201 137.333 89.6734 135.778 84.0001 132.667Z" fill="url(#paint3_linear_302_208)"/>
<path d="M116 116.667V122C106 122 98.2225 117.222 92.667 107.667C99.3337 112.111 107.111 115.111 116 116.667Z" fill="#DB6F3D"/>
<path d="M99.9782 136.65C104.539 136.432 116 134.072 116 128.973V124.667C117.223 124.667 120.724 127.555 122.524 130C129.642 139.667 121.747 148.333 115.308 148.333C107.184 148.333 101.8 141.545 100 138.28C98.2002 141.547 92.8162 148.333 84.6922 148.333C78.2536 148.333 70.3589 139.667 77.4762 130C79.2769 127.555 82.7776 124.667 84.0002 124.667V128.973C84.0002 134.072 95.1602 136.432 99.9782 136.65Z" fill="white"/>
<defs>
<linearGradient id="paint0_linear_302_208" x1="100" y1="0" x2="100" y2="200" gradientUnits="userSpaceOnUse">
<stop stop-color="#806A6A"/>
<stop offset="1" stop-color="#665654"/>
</linearGradient>
<linearGradient id="paint1_linear_302_208" x1="100" y1="200" x2="100" y2="124.667" gradientUnits="userSpaceOnUse">
<stop stop-color="#FFC9B3"/>
<stop offset="1" stop-color="#FFD2C2"/>
</linearGradient>
<linearGradient id="paint2_linear_302_208" x1="102.427" y1="26.2221" x2="102.427" y2="116.941" gradientUnits="userSpaceOnUse">
<stop stop-color="#1D0024"/>
<stop offset="1" stop-color="#100014"/>
</linearGradient>
<linearGradient id="paint3_linear_302_208" x1="106.899" y1="60.4553" x2="106.899" y2="137.333" gradientUnits="userSpaceOnUse">
<stop stop-color="#E6864E"/>
<stop offset="1" stop-color="#EB965E"/>
</linearGradient>
</defs>
</svg>
