<svg width="200" height="200" viewBox="0 0 200 200" fill="none" xmlns="http://www.w3.org/2000/svg">
<g clip-path="url(#clip0_302_274)">
<rect width="200" height="200" fill="url(#paint0_linear_302_274)"/>
<path d="M82.1951 139.249C87.9687 129.649 101.224 111.248 132.786 85.392C180.413 46.3754 135.463 10.6882 87.1736 29.695C82.0079 31.7285 67.6931 23.588 54.433 32.1641C45.8793 37.6964 49.2082 42.032 45.8776 46.3676C42.547 50.7033 29.7063 50.4481 26.8934 61.7061C25.2274 68.376 29.8377 75.3624 29.2211 80.3826C28.6044 85.4028 23.7375 89.928 23.5053 96.5553C23.4048 99.3545 23.8566 102.146 24.8352 104.771C25.8137 107.395 27.2996 109.801 29.2081 111.851C31.1166 113.901 33.4103 115.555 35.9582 116.719C38.506 117.882 41.2581 118.532 44.0573 118.632C44.0802 124.166 46.2409 129.477 50.0879 133.455C53.9349 137.432 59.1704 139.77 64.7003 139.977C68.2462 140.107 71.7679 139.344 74.9423 137.759C78.092 140.662 80.796 141.575 82.1951 139.249Z" fill="url(#paint1_linear_302_274)"/>
<path d="M83.3333 129.333C83.3333 123.333 83.1293 93.7387 83.1393 93.2387C66.6666 95.6667 67 64.3333 83.6666 72C87.3333 74.3333 97.6666 72 96.6666 52.6667C114.667 72 135.565 49.4507 137.357 67.8253C139.804 92.9153 137.342 119.173 121.749 119.175C120.044 119.154 118.343 118.984 116.667 118.667V129.333C116.667 136 128.667 139.333 128.667 139.333C128.667 139.333 107.939 158.867 99.3333 158.759C90.728 158.651 71.3333 139.333 71.3333 139.333C71.3333 139.333 83.3333 136 83.3333 129.333Z" fill="url(#paint2_linear_302_274)"/>
<path style="mix-blend-mode:multiply" opacity="0.7" d="M116.666 118.663C108.396 116.829 100.558 113.411 93.5869 108.597C93.5869 108.597 99.339 122.659 116.645 125.327L116.666 118.663Z" fill="url(#paint3_linear_302_274)"/>
<path d="M161.333 159.333C166.17 170.081 168.666 202.667 168.666 202.667H31.333C31.333 202.667 33.8297 170.081 38.6663 159.333C42.9037 149.918 70.8257 139.107 79.0083 136C83.733 141.285 90.5037 144.667 99.9997 144.667C109.496 144.667 116.266 141.285 120.991 136C129.174 139.107 157.096 149.918 161.333 159.333Z" fill="url(#paint4_linear_302_274)"/>
<path d="M37.3831 159.55C41.0111 152.651 52.9518 145.412 63.9931 140.533C69.4998 138.099 85.9998 208 85.9998 208H30.7218C30.7218 208 30.0558 173.484 37.3831 159.55Z" fill="url(#paint5_linear_302_274)"/>
</g>
<defs>
<linearGradient id="paint0_linear_302_274" x1="100" y1="0" x2="100" y2="200" gradientUnits="userSpaceOnUse">
<stop stop-color="#806A6A"/>
<stop offset="1" stop-color="#665654"/>
</linearGradient>
<linearGradient id="paint1_linear_302_274" x1="90.0774" y1="23.5607" x2="85.9707" y2="140.777" gradientUnits="userSpaceOnUse">
<stop stop-color="#1D0024"/>
<stop offset="1" stop-color="#100014"/>
</linearGradient>
<linearGradient id="paint2_linear_302_274" x1="104.573" y1="52.6667" x2="104.573" y2="158.759" gradientUnits="userSpaceOnUse">
<stop stop-color="#E6864E"/>
<stop offset="1" stop-color="#EB965E"/>
</linearGradient>
<linearGradient id="paint3_linear_302_274" x1="97.9454" y1="111.743" x2="101.404" y2="127.3" gradientUnits="userSpaceOnUse">
<stop stop-color="#E68349"/>
<stop offset="1" stop-color="#F09960"/>
</linearGradient>
<linearGradient id="paint4_linear_302_274" x1="99.9997" y1="202.667" x2="99.9997" y2="136" gradientUnits="userSpaceOnUse">
<stop stop-color="#FFC9B3"/>
<stop offset="1" stop-color="#FFD2C2"/>
</linearGradient>
<linearGradient id="paint5_linear_302_274" x1="58.3529" y1="208" x2="58.3529" y2="140.471" gradientUnits="userSpaceOnUse">
<stop stop-color="#FCF2EB"/>
<stop offset="1" stop-color="#FFF9F5"/>
</linearGradient>
<clipPath id="clip0_302_274">
<rect width="200" height="200" fill="white"/>
</clipPath>
</defs>
</svg>
