<svg width="200" height="200" viewBox="0 0 200 200" fill="none" xmlns="http://www.w3.org/2000/svg">
<rect width="200" height="200" fill="url(#paint0_linear_302_199)"/>
<path d="M161.333 156.667C166.222 166 168.667 200 168.667 200H31.3335C31.3335 200 33.7782 166 38.6668 156.667C46.0002 142.667 100 124.667 100 124.667C100 124.667 154 142.667 161.333 156.667Z" fill="url(#paint1_linear_302_199)"/>
<path d="M97.3335 184C97.3335 183.473 97.4899 182.957 97.7829 182.518C98.0759 182.08 98.4924 181.738 98.9797 181.536C99.4669 181.334 100.003 181.282 100.52 181.385C101.038 181.487 101.513 181.741 101.886 182.114C102.259 182.487 102.513 182.962 102.616 183.48C102.718 183.997 102.666 184.533 102.464 185.02C102.262 185.508 101.92 185.924 101.482 186.217C101.043 186.51 100.528 186.667 100 186.667C99.2929 186.667 98.6146 186.386 98.1145 185.886C97.6144 185.385 97.3335 184.707 97.3335 184ZM97.3335 170.667C97.3335 170.139 97.4899 169.624 97.7829 169.185C98.0759 168.747 98.4924 168.405 98.9797 168.203C99.4669 168.001 100.003 167.948 100.52 168.051C101.038 168.154 101.513 168.408 101.886 168.781C102.259 169.154 102.513 169.629 102.616 170.146C102.718 170.664 102.666 171.2 102.464 171.687C102.262 172.174 101.92 172.591 101.482 172.884C101.043 173.177 100.528 173.333 100 173.333C99.2929 173.333 98.6146 173.052 98.1145 172.552C97.6144 172.052 97.3335 171.374 97.3335 170.667ZM97.3335 157.333C97.3335 156.806 97.4899 156.29 97.7829 155.852C98.0759 155.413 98.4924 155.071 98.9797 154.87C99.4669 154.668 100.003 154.615 100.52 154.718C101.038 154.821 101.513 155.075 101.886 155.448C102.259 155.821 102.513 156.296 102.616 156.813C102.718 157.33 102.666 157.867 102.464 158.354C102.262 158.841 101.92 159.258 101.482 159.551C101.043 159.844 100.528 160 100 160C99.2929 160 98.6146 159.719 98.1145 159.219C97.6144 158.719 97.3335 158.041 97.3335 157.333V157.333Z" fill="white"/>
<path d="M156.981 116.941L48.6761 103.852C43.3365 75.5062 49.6699 57.6469 67.6761 50.274C76.0001 23 108.398 25.2187 117.581 27.442C148.832 35.0091 161.965 64.842 156.981 116.941Z" fill="url(#paint2_linear_302_199)"/>
<path d="M84.0001 132.667V92.6667C67.3194 92.4174 70.5727 63.5121 87.3334 72.3334C90.3334 73.6667 98.0001 70.0001 95.3334 61.0001C113.333 74.3334 138.416 50.9334 140 65.3334C143.117 93.6741 137.086 116.968 121.095 116.969C119.391 117.034 117.684 116.933 116 116.667V132.667C110.78 135.778 105.56 137.333 100.34 137.333C95.1201 137.333 89.6734 135.778 84.0001 132.667Z" fill="#FFDBC9"/>
<path d="M116 116.667V122C106 122 98.2225 117.222 92.667 107.667C99.3337 112.111 107.111 115.111 116 116.667Z" fill="#FFBC9E"/>
<path d="M99.9782 136.65C104.539 136.432 116 134.072 116 128.973V124.667C117.223 124.667 120.724 127.555 122.524 130C129.642 139.667 121.747 148.333 115.308 148.333C107.184 148.333 101.8 141.545 100 138.28C98.2002 141.547 92.8162 148.333 84.6922 148.333C78.2536 148.333 70.3589 139.667 77.4762 130C79.2769 127.555 82.7776 124.667 84.0002 124.667V128.973C84.0002 134.072 95.1602 136.432 99.9782 136.65Z" fill="white"/>
<defs>
<linearGradient id="paint0_linear_302_199" x1="100" y1="200" x2="100" y2="0" gradientUnits="userSpaceOnUse">
<stop stop-color="#FFC9B3"/>
<stop offset="1" stop-color="#FFD2C2"/>
</linearGradient>
<linearGradient id="paint1_linear_302_199" x1="100" y1="124.667" x2="100" y2="200" gradientUnits="userSpaceOnUse">
<stop stop-color="#1D0024"/>
<stop offset="1" stop-color="#100014"/>
</linearGradient>
<linearGradient id="paint2_linear_302_199" x1="102.427" y1="116.941" x2="102.427" y2="26.2221" gradientUnits="userSpaceOnUse">
<stop stop-color="#E6864E"/>
<stop offset="1" stop-color="#E67240"/>
</linearGradient>
</defs>
</svg>
