<svg width="200" height="200" viewBox="0 0 200 200" fill="none" xmlns="http://www.w3.org/2000/svg">
<g clip-path="url(#clip0_302_247)">
<rect width="200" height="200" fill="url(#paint0_linear_302_247)"/>
<path d="M132.788 85.392C180.414 46.3754 135.464 10.6882 87.1749 29.6951C82.0092 31.7286 67.6944 23.588 54.4344 32.1642C45.8807 37.6965 49.2095 42.0321 45.8789 46.3677C42.5483 50.7034 29.7077 50.4482 26.8947 61.7062C25.2287 68.376 29.839 75.3625 29.2224 80.3827C28.6057 85.4029 23.7375 89.928 23.5053 96.5554C23.4048 99.3545 23.8566 102.146 24.8352 104.771C25.8137 107.395 27.2996 109.801 29.2081 111.851C31.1166 113.901 33.4103 115.555 35.9582 116.719C38.506 117.882 41.2581 118.533 44.0573 118.632C44.0802 124.166 46.2409 129.477 50.0879 133.455C53.9349 137.432 59.1704 139.77 64.7003 139.977C68.376 140.106 77.6827 140.108 85.6801 135.283C105.72 123.198 101.224 111.248 132.788 85.392Z" fill="white"/>
<path d="M83.3333 129.333C83.3333 123.333 83.1293 93.7387 83.1393 93.2387C66.6666 95.6667 67 64.3334 83.6666 72C87.3333 74.3334 97.6666 72 96.6666 52.6667C114.667 72 135.565 49.4507 137.357 67.8254C139.804 92.9154 137.342 119.173 121.749 119.175C120.044 119.154 118.343 118.984 116.667 118.667V129.333C116.667 136 128.667 139.333 128.667 139.333C128.667 139.333 107.939 158.867 99.3333 158.759C90.728 158.651 71.3333 139.333 71.3333 139.333C71.3333 139.333 83.3333 136 83.3333 129.333Z" fill="url(#paint1_linear_302_247)"/>
<path d="M116.666 118.663C108.396 116.829 100.558 113.411 93.5869 108.597C93.5869 108.597 99.339 122.659 116.645 125.327L116.666 118.663Z" fill="#DB6F3D"/>
<path d="M161.333 159.333C166.17 170.081 168.667 202.667 168.667 202.667H31.3335C31.3335 202.667 33.8302 170.081 38.6668 159.333C42.9042 149.918 70.8262 139.107 79.0088 136C83.7335 141.285 90.5042 144.667 100 144.667C109.496 144.667 116.267 141.285 120.991 136C129.174 139.107 157.096 149.918 161.333 159.333Z" fill="url(#paint2_linear_302_247)"/>
<mask id="mask0_302_247" style="mask-type:alpha" maskUnits="userSpaceOnUse" x="31" y="136" width="138" height="67">
<path d="M161.333 159.333C166.17 170.081 168.667 202.667 168.667 202.667H31.3335C31.3335 202.667 33.8302 170.081 38.6668 159.333C42.9042 149.918 70.8262 139.107 79.0088 136C83.7335 141.285 90.5042 144.667 100 144.667C109.496 144.667 116.267 141.285 120.991 136C129.174 139.107 157.096 149.918 161.333 159.333Z" fill="url(#paint3_linear_302_247)"/>
</mask>
<g mask="url(#mask0_302_247)">
<path d="M162.667 196C162.667 195.209 162.901 194.436 163.341 193.778C163.78 193.12 164.405 192.607 165.136 192.304C165.867 192.002 166.671 191.923 167.447 192.077C168.223 192.231 168.936 192.612 169.495 193.172C170.055 193.731 170.436 194.444 170.59 195.22C170.744 195.996 170.665 196.8 170.362 197.531C170.06 198.262 169.547 198.886 168.889 199.326C168.231 199.765 167.458 200 166.667 200C165.606 200 164.589 199.579 163.838 198.828C163.088 198.078 162.667 197.061 162.667 196V196ZM136 196C136 195.209 136.235 194.436 136.674 193.778C137.114 193.12 137.739 192.607 138.469 192.304C139.2 192.002 140.005 191.923 140.781 192.077C141.556 192.231 142.269 192.612 142.829 193.172C143.388 193.731 143.769 194.444 143.923 195.22C144.078 195.996 143.998 196.8 143.696 197.531C143.393 198.262 142.88 198.886 142.222 199.326C141.565 199.765 140.791 200 140 200C138.939 200 137.922 199.579 137.172 198.828C136.422 198.078 136 197.061 136 196ZM109.333 196C109.333 195.209 109.568 194.436 110.008 193.778C110.447 193.12 111.072 192.607 111.803 192.304C112.534 192.002 113.338 191.923 114.114 192.077C114.89 192.231 115.603 192.612 116.162 193.172C116.721 193.731 117.102 194.444 117.257 195.22C117.411 195.996 117.332 196.8 117.029 197.531C116.726 198.262 116.214 198.886 115.556 199.326C114.898 199.765 114.125 200 113.333 200C112.273 200 111.255 199.579 110.505 198.828C109.755 198.078 109.333 197.061 109.333 196ZM82.6668 196C82.6668 195.209 82.9014 194.436 83.341 193.778C83.7805 193.12 84.4052 192.607 85.1361 192.304C85.867 192.002 86.6713 191.923 87.4472 192.077C88.2231 192.231 88.9358 192.612 89.4953 193.172C90.0547 193.731 90.4356 194.444 90.59 195.22C90.7443 195.996 90.6651 196.8 90.3623 197.531C90.0596 198.262 89.5469 198.886 88.8891 199.326C88.2313 199.765 87.458 200 86.6668 200C85.606 200 84.5886 199.579 83.8384 198.828C83.0883 198.078 82.6668 197.061 82.6668 196ZM56.0002 196C56.0002 195.209 56.2348 194.436 56.6743 193.778C57.1138 193.12 57.7385 192.607 58.4694 192.304C59.2003 192.002 60.0046 191.923 60.7805 192.077C61.5565 192.231 62.2692 192.612 62.8286 193.172C63.388 193.731 63.769 194.444 63.9233 195.22C64.0776 195.996 63.9984 196.8 63.6957 197.531C63.3929 198.262 62.8802 198.886 62.2224 199.326C61.5646 199.765 60.7913 200 60.0002 200C58.9393 200 57.9219 199.579 57.1717 198.828C56.4216 198.078 56.0002 197.061 56.0002 196ZM29.3335 196C29.3335 195.209 29.5681 194.436 30.0076 193.778C30.4471 193.12 31.0719 192.607 31.8028 192.304C32.5337 192.002 33.3379 191.923 34.1139 192.077C34.8898 192.231 35.6025 192.612 36.1619 193.172C36.7213 193.731 37.1023 194.444 37.2566 195.22C37.411 195.996 37.3318 196.8 37.029 197.531C36.7263 198.262 36.2136 198.886 35.5558 199.326C34.898 199.765 34.1246 200 33.3335 200C32.2726 200 31.2552 199.579 30.5051 198.828C29.7549 198.078 29.3335 197.061 29.3335 196V196ZM149.333 182.667C149.333 181.876 149.568 181.102 150.008 180.444C150.447 179.787 151.072 179.274 151.803 178.971C152.534 178.668 153.338 178.589 154.114 178.744C154.89 178.898 155.603 179.279 156.162 179.838C156.721 180.398 157.102 181.11 157.257 181.886C157.411 182.662 157.332 183.466 157.029 184.197C156.726 184.928 156.214 185.553 155.556 185.993C154.898 186.432 154.125 186.667 153.333 186.667C152.273 186.667 151.255 186.245 150.505 185.495C149.755 184.745 149.333 183.728 149.333 182.667ZM122.667 182.667C122.667 181.876 122.901 181.102 123.341 180.444C123.78 179.787 124.405 179.274 125.136 178.971C125.867 178.668 126.671 178.589 127.447 178.744C128.223 178.898 128.936 179.279 129.495 179.838C130.055 180.398 130.436 181.11 130.59 181.886C130.744 182.662 130.665 183.466 130.362 184.197C130.06 184.928 129.547 185.553 128.889 185.993C128.231 186.432 127.458 186.667 126.667 186.667C125.606 186.667 124.589 186.245 123.838 185.495C123.088 184.745 122.667 183.728 122.667 182.667ZM96.0002 182.667C96.0002 181.876 96.2348 181.102 96.6743 180.444C97.1138 179.787 97.7385 179.274 98.4694 178.971C99.2003 178.668 100.005 178.589 100.781 178.744C101.556 178.898 102.269 179.279 102.829 179.838C103.388 180.398 103.769 181.11 103.923 181.886C104.078 182.662 103.998 183.466 103.696 184.197C103.393 184.928 102.88 185.553 102.222 185.993C101.565 186.432 100.791 186.667 100 186.667C98.9393 186.667 97.9219 186.245 97.1717 185.495C96.4216 184.745 96.0002 183.728 96.0002 182.667V182.667ZM69.3335 182.667C69.3335 181.876 69.5681 181.102 70.0076 180.444C70.4471 179.787 71.0719 179.274 71.8028 178.971C72.5337 178.668 73.3379 178.589 74.1139 178.744C74.8898 178.898 75.6025 179.279 76.1619 179.838C76.7213 180.398 77.1023 181.11 77.2566 181.886C77.411 182.662 77.3318 183.466 77.029 184.197C76.7263 184.928 76.2136 185.553 75.5558 185.993C74.898 186.432 74.1246 186.667 73.3335 186.667C72.2726 186.667 71.2552 186.245 70.5051 185.495C69.7549 184.745 69.3335 183.728 69.3335 182.667ZM42.6668 182.667C42.6668 181.876 42.9014 181.102 43.341 180.444C43.7805 179.787 44.4052 179.274 45.1361 178.971C45.867 178.668 46.6713 178.589 47.4472 178.744C48.2231 178.898 48.9358 179.279 49.4953 179.838C50.0547 180.398 50.4356 181.11 50.59 181.886C50.7443 182.662 50.6651 183.466 50.3623 184.197C50.0596 184.928 49.5469 185.553 48.8891 185.993C48.2313 186.432 47.458 186.667 46.6668 186.667C45.606 186.667 44.5885 186.245 43.8384 185.495C43.0883 184.745 42.6668 183.728 42.6668 182.667ZM162.667 169.333C162.667 168.542 162.901 167.769 163.341 167.111C163.78 166.453 164.405 165.941 165.136 165.638C165.867 165.335 166.671 165.256 167.447 165.41C168.223 165.565 168.936 165.946 169.495 166.505C170.055 167.064 170.436 167.777 170.59 168.553C170.744 169.329 170.665 170.133 170.362 170.864C170.06 171.595 169.547 172.22 168.889 172.659C168.231 173.099 167.458 173.333 166.667 173.333C165.606 173.333 164.589 172.912 163.838 172.162C163.088 171.412 162.667 170.394 162.667 169.333V169.333ZM136 169.333C136 168.542 136.235 167.769 136.674 167.111C137.114 166.453 137.739 165.941 138.469 165.638C139.2 165.335 140.005 165.256 140.781 165.41C141.556 165.565 142.269 165.946 142.829 166.505C143.388 167.064 143.769 167.777 143.923 168.553C144.078 169.329 143.998 170.133 143.696 170.864C143.393 171.595 142.88 172.22 142.222 172.659C141.565 173.099 140.791 173.333 140 173.333C138.939 173.333 137.922 172.912 137.172 172.162C136.422 171.412 136 170.394 136 169.333ZM109.333 169.333C109.333 168.542 109.568 167.769 110.008 167.111C110.447 166.453 111.072 165.941 111.803 165.638C112.534 165.335 113.338 165.256 114.114 165.41C114.89 165.565 115.603 165.946 116.162 166.505C116.721 167.064 117.102 167.777 117.257 168.553C117.411 169.329 117.332 170.133 117.029 170.864C116.726 171.595 116.214 172.22 115.556 172.659C114.898 173.099 114.125 173.333 113.333 173.333C112.273 173.333 111.255 172.912 110.505 172.162C109.755 171.412 109.333 170.394 109.333 169.333ZM82.6668 169.333C82.6668 168.542 82.9014 167.769 83.341 167.111C83.7805 166.453 84.4052 165.941 85.1361 165.638C85.867 165.335 86.6713 165.256 87.4472 165.41C88.2231 165.565 88.9358 165.946 89.4953 166.505C90.0547 167.064 90.4356 167.777 90.59 168.553C90.7443 169.329 90.6651 170.133 90.3623 170.864C90.0596 171.595 89.5469 172.22 88.8891 172.659C88.2313 173.099 87.458 173.333 86.6668 173.333C85.606 173.333 84.5886 172.912 83.8384 172.162C83.0883 171.412 82.6668 170.394 82.6668 169.333ZM56.0002 169.333C56.0002 168.542 56.2348 167.769 56.6743 167.111C57.1138 166.453 57.7385 165.941 58.4694 165.638C59.2003 165.335 60.0046 165.256 60.7805 165.41C61.5565 165.565 62.2692 165.946 62.8286 166.505C63.388 167.064 63.769 167.777 63.9233 168.553C64.0776 169.329 63.9984 170.133 63.6957 170.864C63.3929 171.595 62.8802 172.22 62.2224 172.659C61.5646 173.099 60.7913 173.333 60.0002 173.333C58.9393 173.333 57.9219 172.912 57.1717 172.162C56.4216 171.412 56.0002 170.394 56.0002 169.333ZM29.3335 169.333C29.3335 168.542 29.5681 167.769 30.0076 167.111C30.4471 166.453 31.0719 165.941 31.8028 165.638C32.5337 165.335 33.3379 165.256 34.1139 165.41C34.8898 165.565 35.6025 165.946 36.1619 166.505C36.7213 167.064 37.1023 167.777 37.2566 168.553C37.411 169.329 37.3318 170.133 37.029 170.864C36.7263 171.595 36.2136 172.22 35.5558 172.659C34.898 173.099 34.1246 173.333 33.3335 173.333C32.2726 173.333 31.2552 172.912 30.5051 172.162C29.7549 171.412 29.3335 170.394 29.3335 169.333V169.333ZM149.333 156C149.333 155.209 149.568 154.436 150.008 153.778C150.447 153.12 151.072 152.607 151.803 152.304C152.534 152.002 153.338 151.923 154.114 152.077C154.89 152.231 155.603 152.612 156.162 153.172C156.721 153.731 157.102 154.444 157.257 155.22C157.411 155.996 157.332 156.8 157.029 157.531C156.726 158.262 156.214 158.886 155.556 159.326C154.898 159.765 154.125 160 153.333 160C152.273 160 151.255 159.579 150.505 158.828C149.755 158.078 149.333 157.061 149.333 156ZM122.667 156C122.667 155.209 122.901 154.436 123.341 153.778C123.78 153.12 124.405 152.607 125.136 152.304C125.867 152.002 126.671 151.923 127.447 152.077C128.223 152.231 128.936 152.612 129.495 153.172C130.055 153.731 130.436 154.444 130.59 155.22C130.744 155.996 130.665 156.8 130.362 157.531C130.06 158.262 129.547 158.886 128.889 159.326C128.231 159.765 127.458 160 126.667 160C125.606 160 124.589 159.579 123.838 158.828C123.088 158.078 122.667 157.061 122.667 156ZM96.0002 156C96.0002 155.209 96.2348 154.436 96.6743 153.778C97.1138 153.12 97.7385 152.607 98.4694 152.304C99.2003 152.002 100.005 151.923 100.781 152.077C101.556 152.231 102.269 152.612 102.829 153.172C103.388 153.731 103.769 154.444 103.923 155.22C104.078 155.996 103.998 156.8 103.696 157.531C103.393 158.262 102.88 158.886 102.222 159.326C101.565 159.765 100.791 160 100 160C98.9393 160 97.9219 159.579 97.1717 158.828C96.4216 158.078 96.0002 157.061 96.0002 156V156ZM69.3335 156C69.3335 155.209 69.5681 154.436 70.0076 153.778C70.4471 153.12 71.0719 152.607 71.8028 152.304C72.5337 152.002 73.3379 151.923 74.1139 152.077C74.8898 152.231 75.6025 152.612 76.1619 153.172C76.7213 153.731 77.1023 154.444 77.2566 155.22C77.411 155.996 77.3318 156.8 77.029 157.531C76.7263 158.262 76.2136 158.886 75.5558 159.326C74.898 159.765 74.1246 160 73.3335 160C72.2726 160 71.2552 159.579 70.5051 158.828C69.7549 158.078 69.3335 157.061 69.3335 156ZM42.6668 156C42.6668 155.209 42.9014 154.436 43.341 153.778C43.7805 153.12 44.4052 152.607 45.1361 152.304C45.867 152.002 46.6713 151.923 47.4472 152.077C48.2231 152.231 48.9358 152.612 49.4953 153.172C50.0547 153.731 50.4356 154.444 50.59 155.22C50.7443 155.996 50.6651 156.8 50.3623 157.531C50.0596 158.262 49.5469 158.886 48.8891 159.326C48.2313 159.765 47.458 160 46.6668 160C45.606 160 44.5885 159.579 43.8384 158.828C43.0883 158.078 42.6668 157.061 42.6668 156ZM162.667 142.667C162.667 141.876 162.901 141.102 163.341 140.444C163.78 139.787 164.405 139.274 165.136 138.971C165.867 138.668 166.671 138.589 167.447 138.744C168.223 138.898 168.936 139.279 169.495 139.838C170.055 140.398 170.436 141.11 170.59 141.886C170.744 142.662 170.665 143.467 170.362 144.197C170.06 144.928 169.547 145.553 168.889 145.993C168.231 146.432 167.458 146.667 166.667 146.667C165.606 146.667 164.589 146.245 163.838 145.495C163.088 144.745 162.667 143.728 162.667 142.667V142.667ZM136 142.667C136 141.876 136.235 141.102 136.674 140.444C137.114 139.787 137.739 139.274 138.469 138.971C139.2 138.668 140.005 138.589 140.781 138.744C141.556 138.898 142.269 139.279 142.829 139.838C143.388 140.398 143.769 141.11 143.923 141.886C144.078 142.662 143.998 143.467 143.696 144.197C143.393 144.928 142.88 145.553 142.222 145.993C141.565 146.432 140.791 146.667 140 146.667C138.939 146.667 137.922 146.245 137.172 145.495C136.422 144.745 136 143.728 136 142.667V142.667ZM56.0002 142.667C56.0002 141.876 56.2348 141.102 56.6743 140.444C57.1138 139.787 57.7385 139.274 58.4694 138.971C59.2003 138.668 60.0046 138.589 60.7805 138.744C61.5565 138.898 62.2692 139.279 62.8286 139.838C63.388 140.398 63.769 141.11 63.9233 141.886C64.0776 142.662 63.9984 143.467 63.6957 144.197C63.3929 144.928 62.8802 145.553 62.2224 145.993C61.5646 146.432 60.7913 146.667 60.0002 146.667C58.9393 146.667 57.9219 146.245 57.1717 145.495C56.4216 144.745 56.0002 143.728 56.0002 142.667V142.667ZM29.3335 142.667C29.3335 141.876 29.5681 141.102 30.0076 140.444C30.4471 139.787 31.0719 139.274 31.8028 138.971C32.5337 138.668 33.3379 138.589 34.1139 138.744C34.8898 138.898 35.6025 139.279 36.1619 139.838C36.7213 140.398 37.1023 141.11 37.2566 141.886C37.411 142.662 37.3318 143.467 37.029 144.197C36.7263 144.928 36.2136 145.553 35.5558 145.993C34.898 146.432 34.1246 146.667 33.3335 146.667C32.2726 146.667 31.2552 146.245 30.5051 145.495C29.7549 144.745 29.3335 143.728 29.3335 142.667V142.667Z" fill="#FFA789"/>
</g>
</g>
<defs>
<linearGradient id="paint0_linear_302_247" x1="100" y1="0" x2="100" y2="200" gradientUnits="userSpaceOnUse">
<stop stop-color="#1D0024"/>
<stop offset="1" stop-color="#100014"/>
</linearGradient>
<linearGradient id="paint1_linear_302_247" x1="104.573" y1="52.6667" x2="104.573" y2="158.759" gradientUnits="userSpaceOnUse">
<stop stop-color="#E6864E"/>
<stop offset="1" stop-color="#EB965E"/>
</linearGradient>
<linearGradient id="paint2_linear_302_247" x1="100" y1="136" x2="100" y2="202.667" gradientUnits="userSpaceOnUse">
<stop stop-color="#FECBB5"/>
<stop offset="1" stop-color="#FED4C4"/>
</linearGradient>
<linearGradient id="paint3_linear_302_247" x1="100" y1="136" x2="100" y2="202.667" gradientUnits="userSpaceOnUse">
<stop stop-color="#FECBB5"/>
<stop offset="1" stop-color="#FED4C4"/>
</linearGradient>
<clipPath id="clip0_302_247">
<rect width="200" height="200" fill="white"/>
</clipPath>
</defs>
</svg>
