<?xml version="1.0" encoding="UTF-8"?>
<!DOCTYPE svg PUBLIC "-//W3C//DTD SVG 1.1//EN" "http://www.w3.org/Graphics/SVG/1.1/DTD/svg11.dtd">
<svg xmlns="http://www.w3.org/2000/svg" version="1.1" width="385px" height="385px" style="shape-rendering:geometricPrecision; text-rendering:geometricPrecision; image-rendering:optimizeQuality; fill-rule:evenodd; clip-rule:evenodd" xmlns:xlink="http://www.w3.org/1999/xlink">
<g><path style="opacity:0.082" fill="#c3c5c3" d="M 121.5,61.5 C 128.905,60.2468 135.905,61.5802 142.5,65.5C 135.653,63.3716 128.653,62.0383 121.5,61.5 Z"/></g>
<g><path style="opacity:0.337" fill="#9e9e9e" d="M 248.5,61.5 C 249.906,61.9731 250.573,62.9731 250.5,64.5C 249.094,64.0269 248.427,63.0269 248.5,61.5 Z"/></g>
<g><path style="opacity:0.78" fill="#8b8b8b" d="M 119.5,63.5 C 119.074,67.4268 118.074,71.0935 116.5,74.5C 116.432,70.4296 117.432,66.763 119.5,63.5 Z"/></g>
<g><path style="opacity:0.016" fill="#cbcacc" d="M 117.5,95.5 C 119.405,99.2157 120.739,103.216 121.5,107.5C 119.194,103.915 117.861,99.9155 117.5,95.5 Z"/></g>
<g><path style="opacity:0.055" fill="#c4c4c4" d="M 252.5,72.5 C 253.653,78.6529 253.82,84.9863 253,91.5C 251.742,98.6732 249.908,105.673 247.5,112.5C 246.624,112.631 245.957,112.298 245.5,111.5C 251.306,99.1356 253.639,86.1356 252.5,72.5 Z"/></g>
<g><path style="opacity:0.565" fill="#9a9a9a" d="M 356.5,110.5 C 355.092,109.939 353.592,109.605 352,109.5C 347.133,110.426 342.299,111.426 337.5,112.5C 341.949,110.177 346.782,108.843 352,108.5C 353.986,108.569 355.486,109.235 356.5,110.5 Z"/></g>
<g><path style="opacity:0.498" fill="#b4b9b7" d="M 121.5,107.5 C 124.371,110.236 124.038,112.569 120.5,114.5C 120.511,112.983 121.177,111.816 122.5,111C 121.663,109.989 121.33,108.822 121.5,107.5 Z"/></g>
<g><path style="opacity:0.071" fill="#d3d3d3" d="M 356.5,112.5 C 356.573,114.027 355.906,115.027 354.5,115.5C 354.427,113.973 355.094,112.973 356.5,112.5 Z"/></g>
<g><path style="opacity:0.412" fill="#a5a4a2" d="M 116.5,118.5 C 116.573,120.027 115.906,121.027 114.5,121.5C 114.427,119.973 115.094,118.973 116.5,118.5 Z"/></g>
<g><path style="opacity:0.251" fill="#d0d0d0" d="M 353.5,117.5 C 353.598,119.553 352.931,121.22 351.5,122.5C 351.402,120.447 352.069,118.78 353.5,117.5 Z"/></g>
<g><path style="opacity:0.694" fill="#817f82" d="M 114.5,121.5 C 114.262,123.404 113.262,124.738 111.5,125.5C 111.738,123.596 112.738,122.262 114.5,121.5 Z"/></g>
<g><path style="opacity:0.518" fill="#9e9d9d" d="M 111.5,125.5 C 111.262,127.404 110.262,128.738 108.5,129.5C 108.738,127.596 109.738,126.262 111.5,125.5 Z"/></g>
<g><path style="opacity:0.998" fill="#14100f" d="M 248.5,61.5 C 248.427,63.0269 249.094,64.0269 250.5,64.5C 252.04,66.8383 252.706,69.5049 252.5,72.5C 253.639,86.1356 251.306,99.1356 245.5,111.5C 245.957,112.298 246.624,112.631 247.5,112.5C 248.08,114.749 249.413,116.415 251.5,117.5C 252.5,117.833 253.167,118.5 253.5,119.5C 253.738,121.404 254.738,122.738 256.5,123.5C 256.738,125.404 257.738,126.738 259.5,127.5C 259.427,129.027 260.094,130.027 261.5,130.5C 262.338,130.842 262.672,131.508 262.5,132.5C 262.427,134.027 263.094,135.027 264.5,135.5C 266.008,137.181 267.008,139.181 267.5,141.5C 267.5,143.5 267.5,145.5 267.5,147.5C 262.083,148.209 257.083,150.042 252.5,153C 260.827,153.5 269.16,153.666 277.5,153.5C 279.181,155.008 281.181,156.008 283.5,156.5C 284.5,158.167 285.833,159.5 287.5,160.5C 288.072,162.255 288.906,163.922 290,165.5C 291.903,162.829 292.736,159.829 292.5,156.5C 294.834,154.824 295.834,152.491 295.5,149.5C 295.992,147.181 296.992,145.181 298.5,143.5C 300.262,142.738 301.262,141.404 301.5,139.5C 303.262,138.738 304.262,137.404 304.5,135.5C 307.833,132.833 310.833,129.833 313.5,126.5C 315.749,125.92 317.415,124.587 318.5,122.5C 320.027,122.573 321.027,121.906 321.5,120.5C 323.027,120.573 324.027,119.906 324.5,118.5C 328.416,115.71 332.749,113.71 337.5,112.5C 342.299,111.426 347.133,110.426 352,109.5C 353.592,109.605 355.092,109.939 356.5,110.5C 357.833,111.167 357.833,111.833 356.5,112.5C 355.094,112.973 354.427,113.973 354.5,115.5C 354.672,116.492 354.338,117.158 353.5,117.5C 352.069,118.78 351.402,120.447 351.5,122.5C 349.583,125.804 348.416,129.471 348,133.5C 347.179,140.679 347.345,147.679 348.5,154.5C 350.058,161.957 351.058,169.624 351.5,177.5C 354.394,200.357 351.394,222.357 342.5,243.5C 342.672,244.492 342.338,245.158 341.5,245.5C 340.094,245.973 339.427,246.973 339.5,248.5C 338.094,248.973 337.427,249.973 337.5,251.5C 325.449,266.026 310.449,276.526 292.5,283C 219.167,283.5 145.834,283.667 72.5,283.5C 72.5,244.833 72.5,206.167 72.5,167.5C 72.5,167.167 72.5,166.833 72.5,166.5C 74.1616,163.88 75.8283,161.213 77.5,158.5C 79.4044,158.262 80.7377,157.262 81.5,155.5C 81.8417,154.662 82.5084,154.328 83.5,154.5C 94.4748,153.759 105.475,153.259 116.5,153C 115.956,152.283 115.289,151.783 114.5,151.5C 111.296,150.099 107.963,149.099 104.5,148.5C 102.028,147.358 101.028,145.358 101.5,142.5C 102.326,139.515 103.659,136.849 105.5,134.5C 106.906,134.027 107.573,133.027 107.5,131.5C 107.328,130.508 107.662,129.842 108.5,129.5C 110.262,128.738 111.262,127.404 111.5,125.5C 113.262,124.738 114.262,123.404 114.5,121.5C 115.906,121.027 116.573,120.027 116.5,118.5C 117.5,116.833 118.833,115.5 120.5,114.5C 124.038,112.569 124.371,110.236 121.5,107.5C 120.739,103.216 119.405,99.2157 117.5,95.5C 115.504,88.557 115.17,81.557 116.5,74.5C 118.074,71.0935 119.074,67.4268 119.5,63.5C 119.833,62.5 120.5,61.8333 121.5,61.5C 128.653,62.0383 135.653,63.3716 142.5,65.5C 144.181,67.0075 146.181,68.0075 148.5,68.5C 149.492,68.3284 150.158,68.6618 150.5,69.5C 150.973,70.9063 151.973,71.573 153.5,71.5C 154.167,71.5 154.5,71.8333 154.5,72.5C 154.973,73.9063 155.973,74.573 157.5,74.5C 159.833,76.1667 161.833,78.1667 163.5,80.5C 164.08,82.7488 165.413,84.4154 167.5,85.5C 169.167,85.5 170.833,85.5 172.5,85.5C 181.19,85.289 189.857,85.6223 198.5,86.5C 201.886,87.0991 203.886,85.7658 204.5,82.5C 207.5,80.1667 210.167,77.5 212.5,74.5C 214.404,74.2624 215.738,73.2624 216.5,71.5C 218.027,71.573 219.027,70.9063 219.5,69.5C 221.027,69.573 222.027,68.9063 222.5,67.5C 223.514,66.3263 224.847,65.6596 226.5,65.5C 228.698,65.8799 230.365,65.2132 231.5,63.5C 234.495,63.7062 237.162,63.0395 239.5,61.5C 242.5,60.1667 245.5,60.1667 248.5,61.5 Z M 347.5,117.5 C 346.069,118.78 345.402,120.447 345.5,122.5C 344.087,125.219 343.42,128.219 343.5,131.5C 342.464,142.686 342.298,154.02 343,165.5C 340.984,167.684 338.817,169.684 336.5,171.5C 334.432,168.794 333.099,165.794 332.5,162.5C 332.672,161.508 332.338,160.842 331.5,160.5C 329.257,159.142 327.591,159.808 326.5,162.5C 324.405,163.412 322.405,164.579 320.5,166C 319.748,166.671 319.414,167.504 319.5,168.5C 318.833,168.5 318.5,168.833 318.5,169.5C 317.307,169.03 316.64,168.03 316.5,166.5C 316.968,163.767 317.635,161.1 318.5,158.5C 320.597,157.121 320.93,155.455 319.5,153.5C 318.376,152.191 316.876,151.525 315,151.5C 313.175,151.943 311.342,152.277 309.5,152.5C 307.116,152.443 304.782,152.777 302.5,153.5C 301.287,153.253 300.62,152.586 300.5,151.5C 301.338,151.158 301.672,150.492 301.5,149.5C 303.25,148.341 304.25,146.674 304.5,144.5C 305.906,144.027 306.573,143.027 306.5,141.5C 307.167,141.5 307.5,141.167 307.5,140.5C 308.906,140.027 309.573,139.027 309.5,137.5C 311.833,135.833 313.833,133.833 315.5,131.5C 317.027,131.573 318.027,130.906 318.5,129.5C 319.5,129.167 320.167,128.5 320.5,127.5C 322.027,127.573 323.027,126.906 323.5,125.5C 326.669,124.083 329.669,122.417 332.5,120.5C 334.553,120.598 336.22,119.931 337.5,118.5C 340.203,118.045 342.87,117.378 345.5,116.5C 346.416,116.543 347.083,116.876 347.5,117.5 Z"/></g>
<g><path style="opacity:0.58" fill="#a3a3a3" d="M 313.5,126.5 C 310.833,129.833 307.833,132.833 304.5,135.5C 306.5,131.5 309.5,128.5 313.5,126.5 Z"/></g>
<g><path style="opacity:0.286" fill="#cfcfcf" d="M 259.5,127.5 C 260.906,127.973 261.573,128.973 261.5,130.5C 260.094,130.027 259.427,129.027 259.5,127.5 Z"/></g>
<g><path style="opacity:0.573" fill="#acacac" d="M 345.5,122.5 C 345.58,125.781 344.913,128.781 343.5,131.5C 343.42,128.219 344.087,125.219 345.5,122.5 Z"/></g>
<g><path style="opacity:0.098" fill="#d3d3d3" d="M 323.5,125.5 C 323.027,126.906 322.027,127.573 320.5,127.5C 320.973,126.094 321.973,125.427 323.5,125.5 Z"/></g>
<g><path style="opacity:0.698" fill="#797979" d="M 318.5,122.5 C 317.415,124.587 315.749,125.92 313.5,126.5C 314.585,124.413 316.251,123.08 318.5,122.5 Z"/></g>
<g><path style="opacity:0.486" fill="#aeabaa" d="M 256.5,123.5 C 258.262,124.262 259.262,125.596 259.5,127.5C 257.738,126.738 256.738,125.404 256.5,123.5 Z"/></g>
<g><path style="opacity:0.576" fill="#939393" d="M 321.5,120.5 C 321.027,121.906 320.027,122.573 318.5,122.5C 318.973,121.094 319.973,120.427 321.5,120.5 Z"/></g>
<g><path style="opacity:0.506" fill="#a5a2a5" d="M 253.5,119.5 C 255.262,120.262 256.262,121.596 256.5,123.5C 254.738,122.738 253.738,121.404 253.5,119.5 Z"/></g>
<g><path style="opacity:0.769" fill="#8d8d8d" d="M 347.5,117.5 C 347.88,119.698 347.213,121.365 345.5,122.5C 345.402,120.447 346.069,118.78 347.5,117.5 Z"/></g>
<g><path style="opacity:0.157" fill="#d2d2d2" d="M 337.5,118.5 C 336.22,119.931 334.553,120.598 332.5,120.5C 333.78,119.069 335.447,118.402 337.5,118.5 Z"/></g>
<g><path style="opacity:0.565" fill="#9c9c9c" d="M 324.5,118.5 C 324.027,119.906 323.027,120.573 321.5,120.5C 321.973,119.094 322.973,118.427 324.5,118.5 Z"/></g>
<g><path style="opacity:0.075" fill="#d3d3d3" d="M 347.5,117.5 C 347.083,116.876 346.416,116.543 345.5,116.5C 342.87,117.378 340.203,118.045 337.5,118.5C 340.744,115.792 344.411,115.125 348.5,116.5C 348.376,117.107 348.043,117.44 347.5,117.5 Z"/></g>
<g><path style="opacity:0.588" fill="#b1b1af" d="M 247.5,112.5 C 249.587,113.585 250.92,115.251 251.5,117.5C 249.413,116.415 248.08,114.749 247.5,112.5 Z"/></g>
<g><path style="opacity:1" fill="#f85f2d" d="M 175.5,89.5 C 205.05,88.6258 229.55,99.2925 249,121.5C 253.09,126.428 256.59,131.761 259.5,137.5C 259.167,137.833 258.833,138.167 258.5,138.5C 243.11,129.454 227.11,128.288 210.5,135C 200.777,140.725 193.944,148.892 190,159.5C 187.922,166.402 186.255,173.402 185,180.5C 180.769,141.972 159.602,126.139 121.5,133C 117.731,134.597 114.064,136.43 110.5,138.5C 109.479,137.998 109.312,137.332 110,136.5C 125.046,111.275 146.88,95.6083 175.5,89.5 Z"/></g>
<g><path style="opacity:0.203" fill="#b5b4b5" d="M 204.5,82.5 C 203.886,85.7658 201.886,87.0991 198.5,86.5C 189.857,85.6223 181.19,85.289 172.5,85.5C 181.182,84.2235 190.015,84.2235 199,85.5C 201.192,85.1373 203.026,84.1373 204.5,82.5 Z"/></g>
<g><path style="opacity:0.376" fill="#adadaa" d="M 163.5,80.5 C 165.587,81.5846 166.92,83.2512 167.5,85.5C 165.413,84.4154 164.08,82.7488 163.5,80.5 Z"/></g>
<g><path style="opacity:1" fill="#f2602e" d="M 122.5,68.5 C 130.795,76.228 136.461,85.728 139.5,97C 139.415,98.1074 139.081,99.1074 138.5,100C 134.696,102.305 131.03,104.805 127.5,107.5C 124.445,102.628 122.612,97.295 122,91.5C 121.309,83.8053 121.475,76.1387 122.5,68.5 Z"/></g>
<g><path style="opacity:1" fill="#f1602d" d="M 245.5,68.5 C 247.13,70.0261 247.963,72.0261 248,74.5C 249.473,86.2642 247.307,97.2642 241.5,107.5C 237.5,104.5 233.5,101.5 229.5,98.5C 232.704,87.3137 238.038,77.3137 245.5,68.5 Z"/></g>
<g><path style="opacity:0.549" fill="#adacac" d="M 212.5,74.5 C 210.167,77.5 207.5,80.1667 204.5,82.5C 206.167,78.8333 208.833,76.1667 212.5,74.5 Z"/></g>
<g><path style="opacity:1" fill="#f1602d" d="M 237.5,66.5 C 238.675,66.281 239.675,66.6143 240.5,67.5C 233.696,75.4352 228.696,84.4352 225.5,94.5C 224.635,95.5827 223.635,95.7494 222.5,95C 217.298,92.7747 212.298,90.2747 207.5,87.5C 215.12,77.0296 225.12,70.0296 237.5,66.5 Z"/></g>
<g><path style="opacity:0.561" fill="#8f8f8c" d="M 216.5,71.5 C 215.738,73.2624 214.404,74.2624 212.5,74.5C 213.262,72.7376 214.596,71.7376 216.5,71.5 Z"/></g>
<g><path style="opacity:0.082" fill="#d5d5d5" d="M 154.5,72.5 C 156.027,72.427 157.027,73.0937 157.5,74.5C 155.973,74.573 154.973,73.9063 154.5,72.5 Z"/></g>
<g><path style="opacity:1" fill="#f3612f" d="M 128.5,67.5 C 141.815,69.4236 152.982,75.7569 162,86.5C 162.591,87.4835 162.257,88.1501 161,88.5C 155.161,91.0093 149.328,93.3427 143.5,95.5C 140.589,85.0089 135.589,75.6755 128.5,67.5 Z"/></g>
<g><path style="opacity:0.608" fill="#888681" d="M 219.5,69.5 C 219.027,70.9063 218.027,71.573 216.5,71.5C 216.973,70.0937 217.973,69.427 219.5,69.5 Z"/></g>
<g><path style="opacity:0.063" fill="#dbddda" d="M 150.5,69.5 C 152.027,69.427 153.027,70.0937 153.5,71.5C 151.973,71.573 150.973,70.9063 150.5,69.5 Z"/></g>
<g><path style="opacity:0.573" fill="#9c9a99" d="M 222.5,67.5 C 222.027,68.9063 221.027,69.573 219.5,69.5C 219.973,68.0937 220.973,67.427 222.5,67.5 Z"/></g>
<g><path style="opacity:0.18" fill="#d8d8d8" d="M 142.5,65.5 C 145.089,65.461 147.089,66.461 148.5,68.5C 146.181,68.0075 144.181,67.0075 142.5,65.5 Z"/></g>
<g><path style="opacity:0.776" fill="#878787" d="M 231.5,63.5 C 230.365,65.2132 228.698,65.8799 226.5,65.5C 227.78,64.0687 229.447,63.4021 231.5,63.5 Z"/></g>
<g><path style="opacity:0.718" fill="#929291" d="M 239.5,61.5 C 237.162,63.0395 234.495,63.7062 231.5,63.5C 233.838,61.9605 236.505,61.2938 239.5,61.5 Z"/></g>
<g><path style="opacity:0.09" fill="#d7d7d7" d="M 318.5,129.5 C 318.027,130.906 317.027,131.573 315.5,131.5C 315.973,130.094 316.973,129.427 318.5,129.5 Z"/></g>
<g><path style="opacity:0.322" fill="#b7b7b7" d="M 107.5,131.5 C 107.573,133.027 106.906,134.027 105.5,134.5C 105.427,132.973 106.094,131.973 107.5,131.5 Z"/></g>
<g><path style="opacity:0.298" fill="#c1c1c0" d="M 262.5,132.5 C 263.906,132.973 264.573,133.973 264.5,135.5C 263.094,135.027 262.427,134.027 262.5,132.5 Z"/></g>
<g><path style="opacity:1" fill="#f7f7f7" d="M 128.5,135.5 C 153.022,132.491 169.189,142.491 177,165.5C 178.787,173.413 179.953,181.413 180.5,189.5C 176.104,190.216 172.771,192.55 170.5,196.5C 155.083,173.741 135.083,156.408 110.5,144.5C 116.035,140.399 122.035,137.399 128.5,135.5 Z"/></g>
<g><path style="opacity:1" fill="#f7f7f7" d="M 221.5,135.5 C 229.22,135.238 236.887,135.738 244.5,137C 249.647,138.738 254.314,141.238 258.5,144.5C 233.882,156.28 214.049,173.613 199,196.5C 197.236,192.905 194.402,190.572 190.5,189.5C 188.575,171.441 193.908,155.941 206.5,143C 211.313,139.927 216.313,137.427 221.5,135.5 Z"/></g>
<g><path style="opacity:0.682" fill="#808080" d="M 304.5,135.5 C 304.262,137.404 303.262,138.738 301.5,139.5C 301.738,137.596 302.738,136.262 304.5,135.5 Z"/></g>
<g><path style="opacity:0.106" fill="#c4c4c4" d="M 309.5,137.5 C 309.573,139.027 308.906,140.027 307.5,140.5C 307.427,138.973 308.094,137.973 309.5,137.5 Z"/></g>
<g><path style="opacity:0.118" fill="#a9a9a9" d="M 351.5,122.5 C 348.964,133.001 347.964,143.667 348.5,154.5C 347.345,147.679 347.179,140.679 348,133.5C 348.416,129.471 349.583,125.804 351.5,122.5 Z"/></g>
<g><path style="opacity:0.506" fill="#9e9e9e" d="M 301.5,139.5 C 301.262,141.404 300.262,142.738 298.5,143.5C 298.738,141.596 299.738,140.262 301.5,139.5 Z"/></g>
<g><path style="opacity:0.086" fill="#d1d1d1" d="M 306.5,141.5 C 306.573,143.027 305.906,144.027 304.5,144.5C 304.427,142.973 305.094,141.973 306.5,141.5 Z"/></g>
<g><path style="opacity:0.263" fill="#b4b5b5" d="M 343.5,131.5 C 343.532,143.19 343.699,154.856 344,166.5C 341.333,169.167 338.667,171.833 336,174.5C 333.051,171.05 331.884,167.05 332.5,162.5C 333.099,165.794 334.432,168.794 336.5,171.5C 338.817,169.684 340.984,167.684 343,165.5C 342.298,154.02 342.464,142.686 343.5,131.5 Z"/></g>
<g><path style="opacity:0.643" fill="#8f8f8f" d="M 267.5,141.5 C 269.994,143.594 269.994,145.594 267.5,147.5C 267.5,145.5 267.5,143.5 267.5,141.5 Z"/></g>
<g><path style="opacity:0.192" fill="#b0b0b0" d="M 101.5,142.5 C 101.028,145.358 102.028,147.358 104.5,148.5C 103.178,148.67 102.011,148.337 101,147.5C 100.22,145.613 100.387,143.946 101.5,142.5 Z"/></g>
<g><path style="opacity:0.251" fill="#cacaca" d="M 304.5,144.5 C 304.25,146.674 303.25,148.341 301.5,149.5C 301.75,147.326 302.75,145.659 304.5,144.5 Z"/></g>
<g><path style="opacity:1" fill="#0f0f0f" d="M 151.5,147.5 C 160.968,147.285 163.301,151.118 158.5,159C 148.415,159.76 146.082,155.927 151.5,147.5 Z"/></g>
<g><path style="opacity:1" fill="#111111" d="M 211.5,147.5 C 220.968,147.285 223.301,151.118 218.5,159C 214.543,161.385 211.376,160.552 209,156.5C 207.927,152.9 208.76,149.9 211.5,147.5 Z"/></g>
<g><path style="opacity:0.059" fill="#f6f6f6" d="M 104.5,148.5 C 107.963,149.099 111.296,150.099 114.5,151.5C 107.687,152.491 100.687,152.825 93.5,152.5C 98.3165,151.674 103.316,151.174 108.5,151C 106.934,150.392 105.6,149.558 104.5,148.5 Z"/></g>
<g><path style="opacity:0.376" fill="#9e9e9e" d="M 114.5,151.5 C 115.289,151.783 115.956,152.283 116.5,153C 105.475,153.259 94.4748,153.759 83.5,154.5C 83.9175,153.778 84.5842,153.278 85.5,153C 88.146,152.503 90.8127,152.336 93.5,152.5C 100.687,152.825 107.687,152.491 114.5,151.5 Z"/></g>
<g><path style="opacity:0.309" fill="#c6c6c6" d="M 267.5,147.5 C 264.858,148.895 262.191,150.395 259.5,152C 265.681,152.172 271.681,152.672 277.5,153.5C 269.16,153.666 260.827,153.5 252.5,153C 257.083,150.042 262.083,148.209 267.5,147.5 Z"/></g>
<g><path style="opacity:0.659" fill="#888888" d="M 319.5,153.5 C 316.167,153.5 312.833,153.5 309.5,153.5C 309.5,153.167 309.5,152.833 309.5,152.5C 311.342,152.277 313.175,151.943 315,151.5C 316.876,151.525 318.376,152.191 319.5,153.5 Z"/></g>
<g><path style="opacity:0.165" fill="#d5d5d5" d="M 300.5,151.5 C 300.62,152.586 301.287,153.253 302.5,153.5C 304.782,152.777 307.116,152.443 309.5,152.5C 309.5,152.833 309.5,153.167 309.5,153.5C 306.26,153.768 303.094,154.434 300,155.5C 298.456,154.162 298.623,152.829 300.5,151.5 Z"/></g>
<g><path style="opacity:0.243" fill="#c8c8c8" d="M 277.5,153.5 C 280.089,153.461 282.089,154.461 283.5,156.5C 281.181,156.008 279.181,155.008 277.5,153.5 Z"/></g>
<g><path style="opacity:0.788" fill="#6d6d6d" d="M 295.5,149.5 C 295.834,152.491 294.834,154.824 292.5,156.5C 292.707,153.759 293.707,151.426 295.5,149.5 Z"/></g>
<g><path style="opacity:0.553" fill="#8e8e8e" d="M 81.5,155.5 C 80.7377,157.262 79.4044,158.262 77.5,158.5C 78.2623,156.738 79.5956,155.738 81.5,155.5 Z"/></g>
<g><path style="opacity:0.043" fill="#dddddd" d="M 283.5,156.5 C 285.833,156.833 287.167,158.167 287.5,160.5C 285.833,159.5 284.5,158.167 283.5,156.5 Z"/></g>
<g><path style="opacity:0.004" fill="#e6e5e6" d="M 319.5,153.5 C 320.93,155.455 320.597,157.121 318.5,158.5C 319.038,156.883 319.371,155.216 319.5,153.5 Z"/></g>
<g><path style="opacity:1" fill="#f4f4f4" d="M 87.5,157.5 C 100.171,157.333 112.838,157.5 125.5,158C 128.681,160.092 131.681,162.425 134.5,165C 120.833,165.333 107.167,165.667 93.5,166C 90,167.5 87.5,170 86,173.5C 85.5,208.498 85.3333,243.498 85.5,278.5C 82.5,278.5 79.5,278.5 76.5,278.5C 76.3333,241.832 76.5,205.165 77,168.5C 79.3308,163.67 82.8308,160.004 87.5,157.5 Z"/></g>
<g><path style="opacity:1" fill="#f0f0f0" d="M 243.5,157.5 C 253.839,157.334 264.172,157.5 274.5,158C 280.159,158.996 283.993,162.162 286,167.5C 286.5,204.498 286.667,241.498 286.5,278.5C 283.5,278.5 280.5,278.5 277.5,278.5C 277.667,243.498 277.5,208.498 277,173.5C 275.108,169.942 272.275,167.442 268.5,166C 257.167,165.667 245.833,165.333 234.5,165C 237.69,162.636 240.69,160.136 243.5,157.5 Z"/></g>
<g><path style="opacity:0.69" fill="#848484" d="M 77.5,158.5 C 75.8283,161.213 74.1616,163.88 72.5,166.5C 72.6516,162.859 74.3182,160.193 77.5,158.5 Z"/></g>
<g><path style="opacity:0.565" fill="#808080" d="M 331.5,160.5 C 329.833,161.167 328.167,161.833 326.5,162.5C 327.591,159.808 329.257,159.142 331.5,160.5 Z"/></g>
<g><path style="opacity:0.776" fill="#a1a2a3" d="M 292.5,156.5 C 292.736,159.829 291.903,162.829 290,165.5C 288.906,163.922 288.072,162.255 287.5,160.5C 288.458,160.953 289.292,161.619 290,162.5C 290.566,160.277 291.4,158.277 292.5,156.5 Z"/></g>
<g><path style="opacity:1" fill="#f95f2d" d="M 293.5,277.5 C 291.511,255.525 290.844,233.192 291.5,210.5C 291.892,208.821 292.392,207.154 293,205.5C 293.085,190.773 293.918,176.106 295.5,161.5C 300.988,159.667 306.654,158.334 312.5,157.5C 310.013,164.064 309.847,170.731 312,177.5C 313.133,179.211 314.633,179.711 316.5,179C 319.989,175.345 323.655,171.845 327.5,168.5C 329.318,172.136 331.151,175.802 333,179.5C 333.725,180.059 334.558,180.392 335.5,180.5C 338.917,178.368 341.917,175.701 344.5,172.5C 348.741,191.919 348.241,211.252 343,230.5C 333.16,253.173 316.66,268.84 293.5,277.5 Z"/></g>
<g><path style="opacity:0.02" fill="#e4e5e4" d="M 318.5,158.5 C 317.635,161.1 316.968,163.767 316.5,166.5C 316.64,168.03 317.307,169.03 318.5,169.5C 315.899,173.239 314.899,172.405 315.5,167C 315.667,165.167 315.833,163.333 316,161.5C 316.377,160.058 317.21,159.058 318.5,158.5 Z"/></g>
<g><path style="opacity:0.243" fill="#cececf" d="M 326.5,162.5 C 324.766,165.2 322.432,167.2 319.5,168.5C 319.414,167.504 319.748,166.671 320.5,166C 322.405,164.579 324.405,163.412 326.5,162.5 Z"/></g>
<g><path style="opacity:0.999" fill="#fafafa" d="M 123.5,276.5 C 112.884,278.477 101.884,279.144 90.5,278.5C 90.3333,243.498 90.5,208.498 91,173.5C 91.8333,172.667 92.6667,171.833 93.5,171C 109.833,170.333 126.167,170.333 142.5,171C 144.227,172.389 145.561,174.056 146.5,176C 136.972,193.255 129.805,211.421 125,230.5C 121.301,245.789 120.801,261.122 123.5,276.5 Z"/></g>
<g><path style="opacity:1" fill="#fbfbfb" d="M 227.5,170.5 C 241.171,170.333 254.837,170.5 268.5,171C 269.931,171.465 271.097,172.299 272,173.5C 272.5,208.498 272.667,243.498 272.5,278.5C 263.143,278.832 253.81,278.498 244.5,277.5C 245.775,274.627 246.608,271.627 247,268.5C 248.038,235.272 239.871,204.439 222.5,176C 224.373,174.296 226.04,172.463 227.5,170.5 Z"/></g>
<g><path style="opacity:1" fill="#121212" d="M 119.5,179.5 C 122.68,179.176 123.847,180.51 123,183.5C 116.5,190 110,196.5 103.5,203C 100.866,203.925 99.6992,203.091 100,200.5C 107.073,193.931 113.573,186.931 119.5,179.5 Z"/></g>
<g><path style="opacity:1" fill="#f8602d" d="M 128.5,274.5 C 127.323,262.84 127.323,251.173 128.5,239.5C 129.01,234.609 130.01,229.942 131.5,225.5C 132.924,223.485 133.59,221.152 133.5,218.5C 137.367,205.405 142.701,192.905 149.5,181C 152.406,181.852 154.906,183.685 157,186.5C 162.833,194.333 168.667,202.167 174.5,210C 181.73,214.827 188.73,214.494 195.5,209C 202.592,199.485 209.926,190.152 217.5,181C 218.167,180.333 218.833,180.333 219.5,181C 236.322,208.12 243.822,237.62 242,269.5C 241.468,272.264 240.634,274.93 239.5,277.5C 232.197,278.497 224.863,278.831 217.5,278.5C 217.667,266.162 217.5,253.829 217,241.5C 212.418,224.94 201.418,216.607 184,216.5C 166.757,217.076 156.091,225.743 152,242.5C 151.5,254.495 151.333,266.495 151.5,278.5C 144.167,278.5 136.833,278.5 129.5,278.5C 129.567,277.041 129.234,275.708 128.5,274.5 Z"/></g>
<g><path style="opacity:1" fill="#151515" d="M 115.5,201.5 C 116.833,201.5 118.167,201.5 119.5,201.5C 119.649,202.552 119.483,203.552 119,204.5C 114.299,208.866 109.966,213.533 106,218.5C 104.254,220.457 102.088,221.457 99.5,221.5C 99.3433,220.127 99.51,218.793 100,217.5C 105.37,212.298 110.536,206.965 115.5,201.5 Z"/></g>
<g><path style="opacity:1" fill="#a7472e" d="M 133.5,218.5 C 133.59,221.152 132.924,223.485 131.5,225.5C 131.41,222.848 132.076,220.515 133.5,218.5 Z"/></g>
<g><path style="opacity:1" fill="#fafafa" d="M 178.5,221.5 C 187.47,220.769 195.803,222.602 203.5,227C 207.551,230.721 210.384,235.221 212,240.5C 212.5,253.162 212.667,265.829 212.5,278.5C 193.833,278.5 175.167,278.5 156.5,278.5C 156.056,265.093 156.556,251.76 158,238.5C 161.538,228.673 168.371,223.006 178.5,221.5 Z"/></g>
<g><path style="opacity:0.208" fill="#d7d7d7" d="M 351.5,177.5 C 355.505,198.244 353.672,218.578 346,238.5C 345.303,240.584 344.136,242.251 342.5,243.5C 351.394,222.357 354.394,200.357 351.5,177.5 Z"/></g>
<g><path style="opacity:1" fill="#191919" d="M 260.5,233.5 C 263.076,233.722 263.91,235.055 263,237.5C 259.815,241.541 255.981,244.541 251.5,246.5C 251.343,245.127 251.51,243.793 252,242.5C 255.038,239.631 257.871,236.631 260.5,233.5 Z"/></g>
<g><path style="opacity:1" fill="#ae482c" d="M 291.5,210.5 C 290.844,233.192 291.511,255.525 293.5,277.5C 292.791,278.404 291.791,278.737 290.5,278.5C 290.169,255.661 290.503,232.994 291.5,210.5 Z"/></g>
<g><path style="opacity:0.188" fill="#d5d6d5" d="M 341.5,245.5 C 341.573,247.027 340.906,248.027 339.5,248.5C 339.427,246.973 340.094,245.973 341.5,245.5 Z"/></g>
<g><path style="opacity:0.078" fill="#d3d3d3" d="M 339.5,248.5 C 339.573,250.027 338.906,251.027 337.5,251.5C 337.427,249.973 338.094,248.973 339.5,248.5 Z"/></g>
<g><path style="opacity:0.004" fill="#fdfefd" d="M 352.5,252.5 C 353.833,253.167 353.833,253.167 352.5,252.5 Z"/></g>
<g><path style="opacity:0.209" fill="#eaeaea" d="M 72.5,167.5 C 72.5,206.167 72.5,244.833 72.5,283.5C 145.834,283.667 219.167,283.5 292.5,283C 310.449,276.526 325.449,266.026 337.5,251.5C 338.263,252.268 339.263,252.768 340.5,253C 332.784,257.716 326.784,264.05 322.5,272C 319.003,274.583 315.336,276.916 311.5,279C 307.552,281.899 307.052,285.065 310,288.5C 310.288,291.53 310.455,294.364 310.5,297C 306.505,303.669 301.005,308.502 294,311.5C 284.948,311.565 275.781,311.565 266.5,311.5C 265.818,312.243 265.151,312.909 264.5,313.5C 264.53,312.503 264.03,311.836 263,311.5C 261.186,311.591 259.353,311.925 257.5,312.5C 257.167,311.167 256.833,311.167 256.5,312.5C 253.922,311.736 251.589,311.736 249.5,312.5C 248.167,311.167 246.833,311.167 245.5,312.5C 244.5,312.5 243.5,312.5 242.5,312.5C 242.167,311.167 241.833,311.167 241.5,312.5C 239.347,311.427 237.347,311.427 235.5,312.5C 217.706,311.372 199.706,311.372 181.5,312.5C 178.326,312.519 175.159,312.186 172,311.5C 171.667,312.167 171.333,312.833 171,313.5C 166.627,311.989 162.293,311.322 158,311.5C 156.215,312.24 154.382,312.907 152.5,313.5C 146.635,312.854 140.802,312.187 135,311.5C 134.333,314.167 133.667,314.167 133,311.5C 132.667,312.167 132.333,312.833 132,313.5C 128.07,313.009 124.237,313.009 120.5,313.5C 107.343,312.804 94.1763,312.137 81,311.5C 77.2415,311.093 75.7415,312.76 76.5,316.5C 72.9523,315.393 69.6189,313.726 66.5,311.5C 65.2888,310.726 65.2888,309.893 66.5,309C 58.5536,303.692 55.8869,295.859 58.5,285.5C 60.8543,282.312 63.6876,279.645 67,277.5C 67.97,272.928 69.1366,268.428 70.5,264C 70.2597,261.984 69.9263,259.984 69.5,258C 69.5093,256.596 70.0093,255.43 71,254.5C 71.1677,225.33 71.6677,196.33 72.5,167.5 Z M 152.5,285.5 C 167.789,286.302 183.123,286.802 198.5,287C 184.455,287.184 170.455,287.684 156.5,288.5C 154.224,287.787 151.891,287.287 149.5,287C 150.737,286.768 151.737,286.268 152.5,285.5 Z M 123.5,300.5 C 107.883,301.305 91.5501,301.138 74.5,300C 71.7899,298.985 69.4566,297.485 67.5,295.5C 70.4218,295.746 73.4218,295.413 76.5,294.5C 79.1308,294.782 81.6308,295.449 84,296.5C 84.804,295.196 85.9707,294.529 87.5,294.5C 97.1995,295.766 107.199,295.766 117.5,294.5C 127.744,296.377 138.244,296.377 149,294.5C 150.983,297.419 150.149,299.419 146.5,300.5C 138.969,300.179 131.302,300.179 123.5,300.5 Z M 224.5,294.5 C 247.325,294.832 269.492,294.832 291,294.5C 292.205,295.071 293.372,295.738 294.5,296.5C 293.478,297.354 292.645,298.354 292,299.5C 291.667,299.167 291.333,298.833 291,298.5C 286.729,301.277 282.396,301.611 278,299.5C 257.573,300.659 237.073,300.826 216.5,300C 213.972,298.684 213.972,297.517 216.5,296.5C 219.306,295.832 221.972,295.166 224.5,294.5 Z M 196.5,302.5 C 196.167,302.5 195.833,302.5 195.5,302.5C 192.359,301.679 189.025,301.179 185.5,301C 189.415,299.584 193.415,299.584 197.5,301C 196.944,301.383 196.611,301.883 196.5,302.5 Z M 203.5,302.5 C 203.167,302.5 202.833,302.5 202.5,302.5C 203.334,301.252 204.667,300.585 206.5,300.5C 207.833,300.667 209.167,300.833 210.5,301C 207.964,301.186 205.631,301.686 203.5,302.5 Z"/></g>
<g><path style="opacity:0.004" fill="#fdfefd" d="M 353.5,255.5 C 354.833,256.167 354.833,256.167 353.5,255.5 Z"/></g>
<g><path style="opacity:0.004" fill="#fdfefd" d="M 66.5,256.5 C 67.8333,257.167 67.8333,257.167 66.5,256.5 Z"/></g>
<g><path style="opacity:0.996" fill="#d25831" d="M 128.5,239.5 C 127.323,251.173 127.323,262.84 128.5,274.5C 126.948,269.599 126.281,264.432 126.5,259C 126.4,252.275 127.066,245.775 128.5,239.5 Z"/></g>
<g><path style="opacity:0.004" fill="#fdfefd" d="M 358.5,256.5 C 359.833,257.167 359.833,257.167 358.5,256.5 Z"/></g>
<g><path style="opacity:0.004" fill="#fdfefd" d="M 362.5,257.5 C 363.833,258.167 363.833,258.167 362.5,257.5 Z"/></g>
<g><path style="opacity:0.004" fill="#fdfefd" d="M 20.5,273.5 C 21.8333,274.167 21.8333,274.167 20.5,273.5 Z"/></g>
<g><path style="opacity:0.992" fill="#535251" d="M 123.5,276.5 C 124.404,277.209 124.737,278.209 124.5,279.5C 112.988,279.828 101.654,279.495 90.5,278.5C 101.884,279.144 112.884,278.477 123.5,276.5 Z"/></g>
<g><path style="opacity:0.98" fill="#101010" d="M 59.5,288.5 C 90.5018,288.333 121.502,288.5 152.5,289C 153.878,290.713 155.545,292.047 157.5,293C 174.167,293.667 190.833,293.667 207.5,293C 209.455,292.047 211.122,290.713 212.5,289C 243.165,288.5 273.832,288.333 304.5,288.5C 304.055,297.901 299.388,304.067 290.5,307C 217.833,307.667 145.167,307.667 72.5,307C 64.3383,303.506 60.0049,297.339 59.5,288.5 Z M 123.5,300.5 C 131.302,300.179 138.969,300.179 146.5,300.5C 150.149,299.419 150.983,297.419 149,294.5C 138.244,296.377 127.744,296.377 117.5,294.5C 107.199,295.766 97.1995,295.766 87.5,294.5C 85.9707,294.529 84.804,295.196 84,296.5C 81.6308,295.449 79.1308,294.782 76.5,294.5C 73.4218,295.413 70.4218,295.746 67.5,295.5C 69.4566,297.485 71.7899,298.985 74.5,300C 91.5501,301.138 107.883,301.305 123.5,300.5 Z M 224.5,294.5 C 221.972,295.166 219.306,295.832 216.5,296.5C 213.972,297.517 213.972,298.684 216.5,300C 237.073,300.826 257.573,300.659 278,299.5C 282.396,301.611 286.729,301.277 291,298.5C 291.333,298.833 291.667,299.167 292,299.5C 292.645,298.354 293.478,297.354 294.5,296.5C 293.372,295.738 292.205,295.071 291,294.5C 269.492,294.832 247.325,294.832 224.5,294.5 Z M 196.5,302.5 C 196.167,302.5 195.833,302.5 195.5,302.5C 192.359,301.679 189.025,301.179 185.5,301C 189.415,299.584 193.415,299.584 197.5,301C 196.944,301.383 196.611,301.883 196.5,302.5 Z M 203.5,302.5 C 203.167,302.5 202.833,302.5 202.5,302.5C 203.334,301.252 204.667,300.585 206.5,300.5C 207.833,300.667 209.167,300.833 210.5,301C 207.964,301.186 205.631,301.686 203.5,302.5 Z"/></g>
<g><path style="opacity:0.407" fill="#bcbcbc" d="M 149.5,293.5 C 121.328,293.169 93.3284,293.502 65.5,294.5C 64.9569,294.44 64.6236,294.107 64.5,293.5C 92.9971,292.171 121.33,292.171 149.5,293.5 Z"/></g>
<g><path style="opacity:0.904" fill="#bcbcbb" d="M 214.5,293.5 C 242.67,292.171 271.003,292.171 299.5,293.5C 299.376,294.107 299.043,294.44 298.5,294.5C 270.672,293.502 242.672,293.169 214.5,293.5 Z"/></g>
<g><path style="opacity:0.183" fill="#f9f9f9" d="M 149.5,293.5 C 151.977,295.241 154.644,296.741 157.5,298C 173.833,298.667 190.167,298.667 206.5,298C 209.648,297.262 212.315,295.762 214.5,293.5C 242.672,293.169 270.672,293.502 298.5,294.5C 296.985,298.18 294.319,300.68 290.5,302C 261.502,302.5 232.502,302.667 203.5,302.5C 205.631,301.686 207.964,301.186 210.5,301C 209.167,300.833 207.833,300.667 206.5,300.5C 204.667,300.585 203.334,301.252 202.5,302.5C 200.5,302.5 198.5,302.5 196.5,302.5C 196.611,301.883 196.944,301.383 197.5,301C 193.415,299.584 189.415,299.584 185.5,301C 189.025,301.179 192.359,301.679 195.5,302.5C 154.499,302.667 113.499,302.5 72.5,302C 69.2608,300.264 66.9274,297.764 65.5,294.5C 93.3284,293.502 121.328,293.169 149.5,293.5 Z M 123.5,300.5 C 131.302,300.179 138.969,300.179 146.5,300.5C 150.149,299.419 150.983,297.419 149,294.5C 138.244,296.377 127.744,296.377 117.5,294.5C 107.199,295.766 97.1995,295.766 87.5,294.5C 85.9707,294.529 84.804,295.196 84,296.5C 81.6308,295.449 79.1308,294.782 76.5,294.5C 73.4218,295.413 70.4218,295.746 67.5,295.5C 69.4566,297.485 71.7899,298.985 74.5,300C 91.5501,301.138 107.883,301.305 123.5,300.5 Z M 224.5,294.5 C 221.972,295.166 219.306,295.832 216.5,296.5C 213.972,297.517 213.972,298.684 216.5,300C 237.073,300.826 257.573,300.659 278,299.5C 282.396,301.611 286.729,301.277 291,298.5C 291.333,298.833 291.667,299.167 292,299.5C 292.645,298.354 293.478,297.354 294.5,296.5C 293.372,295.738 292.205,295.071 291,294.5C 269.492,294.832 247.325,294.832 224.5,294.5 Z M 196.5,302.5 C 196.167,302.5 195.833,302.5 195.5,302.5C 192.359,301.679 189.025,301.179 185.5,301C 189.415,299.584 193.415,299.584 197.5,301C 196.944,301.383 196.611,301.883 196.5,302.5 Z M 203.5,302.5 C 203.167,302.5 202.833,302.5 202.5,302.5C 203.334,301.252 204.667,300.585 206.5,300.5C 207.833,300.667 209.167,300.833 210.5,301C 207.964,301.186 205.631,301.686 203.5,302.5 Z"/></g>
<g><path style="opacity:0.004" fill="#fdfefd" d="M 21.5,304.5 C 21.8966,303.475 22.5632,303.308 23.5,304C 22.9056,304.464 22.2389,304.631 21.5,304.5 Z"/></g>
<g><path style="opacity:0.004" fill="#fdfefd" d="M 14.5,305.5 C 14.8966,304.475 15.5632,304.308 16.5,305C 15.9056,305.464 15.2389,305.631 14.5,305.5 Z"/></g>
<g><path style="opacity:0.004" fill="#fdfefd" d="M 24.5,304.5 C 25.8333,305.167 25.8333,305.167 24.5,304.5 Z"/></g>
<g><path style="opacity:0.004" fill="#fdfefd" d="M 57.5,310.5 C 58.8333,311.167 58.8333,311.167 57.5,310.5 Z"/></g>
<g><path style="opacity:0.004" fill="#fdfefd" d="M 345.5,311.5 C 346.833,312.167 346.833,312.167 345.5,311.5 Z"/></g>
<g><path style="opacity:0.004" fill="#fcfdfc" d="M 181.5,312.5 C 180.833,313.167 180.833,313.167 181.5,312.5 Z"/></g>
<g><path style="opacity:0.004" fill="#fcfdfc" d="M 235.5,312.5 C 236.239,312.369 236.906,312.536 237.5,313C 236.563,313.692 235.897,313.525 235.5,312.5 Z"/></g>
<g><path style="opacity:0.004" fill="#fcfdfc" d="M 241.5,312.5 C 241.833,312.5 242.167,312.5 242.5,312.5C 242.315,313.17 241.981,313.17 241.5,312.5 Z"/></g>
<g><path style="opacity:0.004" fill="#fcfdfc" d="M 245.5,312.5 C 246.833,313.167 246.833,313.167 245.5,312.5 Z"/></g>
<g><path style="opacity:0.004" fill="#fcfdfc" d="M 249.5,312.5 C 248.833,313.167 248.833,313.167 249.5,312.5 Z"/></g>
<g><path style="opacity:0.004" fill="#fcfdfc" d="M 256.5,312.5 C 256.833,312.5 257.167,312.5 257.5,312.5C 257.315,313.17 256.981,313.17 256.5,312.5 Z"/></g>
<g><path style="opacity:0.004" fill="#fdfefd" d="M 338.5,312.5 C 339.833,313.167 339.833,313.167 338.5,312.5 Z"/></g>
<g><path style="opacity:0.004" fill="#fcfdfc" d="M 129.5,313.5 C 130.833,314.167 130.833,314.167 129.5,313.5 Z"/></g>
<g><path style="opacity:0.004" fill="#fcfdfc" d="M 141.5,313.5 C 142.833,314.167 142.833,314.167 141.5,313.5 Z"/></g>
<g><path style="opacity:0.004" fill="#fcfdfc" d="M 230.5,313.5 C 231.833,314.167 231.833,314.167 230.5,313.5 Z"/></g>
<g><path style="opacity:0.004" fill="#fcfdfc" d="M 238.5,314.5 C 238.897,313.475 239.563,313.308 240.5,314C 239.906,314.464 239.239,314.631 238.5,314.5 Z"/></g>
<g><path style="opacity:0.004" fill="#fcfdfc" d="M 245.5,313.5 C 244.833,314.167 244.833,314.167 245.5,313.5 Z"/></g>
<g><path style="opacity:0.004" fill="#fcfdfc" d="M 264.5,313.5 C 264.631,314.239 264.464,314.906 264,315.5C 263.308,314.563 263.475,313.897 264.5,313.5 Z"/></g>
<g><path style="opacity:0.004" fill="#fcfdfc" d="M 248.5,314.5 C 249.833,315.167 249.833,315.167 248.5,314.5 Z"/></g>
<g><path style="opacity:0.004" fill="#fcfdfc" d="M 266.5,314.5 C 267.833,315.167 267.833,315.167 266.5,314.5 Z"/></g>
<g><path style="opacity:0.004" fill="#fcfdfc" d="M 228.5,315.5 C 229.833,316.167 229.833,316.167 228.5,315.5 Z"/></g>
<g><path style="opacity:0.004" fill="#fcfdfc" d="M 235.5,315.5 C 236.833,316.167 236.833,316.167 235.5,315.5 Z"/></g>
<g><path style="opacity:0.004" fill="#fcfdfc" d="M 253.5,315.5 C 254.833,316.167 254.833,316.167 253.5,315.5 Z"/></g>
<g><path style="opacity:0.004" fill="#fcfdfc" d="M 259.5,315.5 C 260.833,316.167 260.833,316.167 259.5,315.5 Z"/></g>
<g><path style="opacity:0.004" fill="#fcfdfc" d="M 118.5,320.5 C 126.398,320.543 126.398,321.21 118.5,322.5C 117.5,322.333 116.5,322.167 115.5,322C 116.737,321.768 117.737,321.268 118.5,320.5 Z"/></g>
<g><path style="opacity:0.004" fill="#fcfdfc" d="M 25.5,321.5 C 26.8333,322.167 26.8333,322.167 25.5,321.5 Z"/></g>
<g><path style="opacity:0.005" fill="#fdfdfd" d="M 32.5,322.5 C 37.6503,321.349 42.9836,321.183 48.5,322C 43.1771,322.499 37.8437,322.666 32.5,322.5 Z"/></g>
<g><path style="opacity:0.004" fill="#fcfdfc" d="M 298.5,322.5 C 301.304,321.362 304.304,321.195 307.5,322C 304.518,322.498 301.518,322.665 298.5,322.5 Z"/></g>
</svg>
